<svg xmlns="http://www.w3.org/2000/svg" width="28.187" height="16.411" viewBox="0 0 28.187 16.411">
  <g id="Airport_Transfer" data-name="Airport Transfer" transform="translate(0.15 0.15)">
    <g id="Group_52727" data-name="Group 52727" transform="translate(0 0)">
      <path id="Path_140490" data-name="Path 140490" d="M441.384,1377.571H429.136a.436.436,0,1,1,0-.871h12.25a.436.436,0,1,1,0,.871Z" transform="translate(-421.316 -1363.742)" fill="#0477ff" stroke="#0477ff" stroke-width="0.3"/>
      <path id="Path_140491" data-name="Path 140491" d="M47.273,772.657H46.63a.436.436,0,1,1,0-.871h.643a1.746,1.746,0,0,0,1.743-1.743v-1.229a1.74,1.74,0,0,0-1.318-1.69l-2.934-.737a2.611,2.611,0,0,1-1.211-.686l-3.715-3.715a1.753,1.753,0,0,0-1.233-.51H28.157a1.735,1.735,0,0,0-1.233.51l-3.542,3.539a1.737,1.737,0,0,0-.51,1.233v3.286a1.746,1.746,0,0,0,1.743,1.743h.643a.436.436,0,1,1,0,.871h-.643A2.617,2.617,0,0,1,22,770.043v-3.286a2.6,2.6,0,0,1,.766-1.848l3.542-3.542a2.6,2.6,0,0,1,1.848-.766H38.605a2.6,2.6,0,0,1,1.848.766l3.715,3.715a1.74,1.74,0,0,0,.808.458l2.934.737a2.611,2.611,0,0,1,1.977,2.536v1.231a2.617,2.617,0,0,1-2.614,2.614Z" transform="translate(-22 -758.828)" fill="#0477ff" stroke="#0477ff" stroke-width="0.3"/>
      <path id="Path_140492" data-name="Path 140492" d="M177.181,875.219h-16.14a.8.8,0,0,1-.566-1.364l2.816-2.816a1.155,1.155,0,0,1,.822-.339h10a1.162,1.162,0,0,1,.822.339l2.816,2.816a.8.8,0,0,1-.566,1.364Zm-15.966-.871H177l-2.691-2.692a.288.288,0,0,0-.205-.085h-10a.288.288,0,0,0-.205.085Z" transform="translate(-157.731 -866.929)" fill="#0477ff" stroke="#0477ff" stroke-width="0.3"/>
      <path id="Path_140493" data-name="Path 140493" d="M438.336,875.121a.435.435,0,0,1-.436-.436v-3.649a.436.436,0,0,1,.871,0v3.648A.437.437,0,0,1,438.336,875.121Z" transform="translate(-430.349 -866.831)" fill="#0477ff" stroke="#0477ff" stroke-width="0.3"/>
      <path id="Path_140494" data-name="Path 140494" d="M652.136,875.121a.435.435,0,0,1-.436-.436v-3.649a.436.436,0,0,1,.871,0v3.648A.436.436,0,0,1,652.136,875.121Z" transform="translate(-640.267 -866.831)" fill="#0477ff" stroke="#0477ff" stroke-width="0.3"/>
      <g id="Group_52725" data-name="Group 52725" transform="translate(2.821 10.679)">
        <path id="Path_140495" data-name="Path 140495" d="M180.116,1256.632a2.716,2.716,0,1,1,2.716-2.716A2.719,2.719,0,0,1,180.116,1256.632Zm0-4.562a1.845,1.845,0,1,0,1.845,1.845A1.847,1.847,0,0,0,180.116,1252.07Z" transform="translate(-177.4 -1251.2)" fill="#0477ff" stroke="#0477ff" stroke-width="0.3"/>
        <path id="Path_140496" data-name="Path 140496" d="M262.2,1337.1a1.2,1.2,0,1,1,1.2-1.2A1.2,1.2,0,0,1,262.2,1337.1Zm0-1.525a.327.327,0,1,0,.327.327A.328.328,0,0,0,262.2,1335.571Z" transform="translate(-259.482 -1333.184)" fill="#0477ff" stroke="#0477ff" stroke-width="0.3"/>
        <path id="Path_140497" data-name="Path 140497" d="M1106.116,1256.632a2.716,2.716,0,1,1,2.716-2.716A2.719,2.719,0,0,1,1106.116,1256.632Zm0-4.562a1.845,1.845,0,1,0,1.845,1.845A1.847,1.847,0,0,0,1106.116,1252.07Z" transform="translate(-1086.588 -1251.2)" fill="#0477ff" stroke="#0477ff" stroke-width="0.3"/>
        <path id="Path_140498" data-name="Path 140498" d="M1188.2,1337.1a1.2,1.2,0,1,1,1.2-1.2A1.2,1.2,0,0,1,1188.2,1337.1Zm0-1.525a.327.327,0,1,0,.327.327A.328.328,0,0,0,1188.2,1335.571Z" transform="translate(-1168.67 -1333.184)" fill="#0477ff" stroke="#0477ff" stroke-width="0.3"/>
      </g>
      <path id="Path_140499" data-name="Path 140499" d="M1437.092,1220.271h-1.356a.436.436,0,0,1,0-.872h1.356a.436.436,0,0,1,0,.872Z" transform="translate(-1409.641 -1209.298)" fill="#0477ff" stroke="#0477ff" stroke-width="0.3"/>
      <g id="Group_52726" data-name="Group 52726" transform="translate(9.002 9.503)">
        <path id="Path_140500" data-name="Path 140500" d="M517.8,1246.9h1.1v1.1h-1.1Z" transform="translate(-517.8 -1245.802)" fill="#0477ff" stroke="#0477ff" stroke-width="0.3"/>
        <path id="Path_140501" data-name="Path 140501" d="M578.3,1186.4h1.1v1.1h-1.1Z" transform="translate(-577.202 -1186.4)" fill="#0477ff" stroke="#0477ff" stroke-width="0.3"/>
        <path id="Path_140502" data-name="Path 140502" d="M638.8,1246.9h1.1v1.1h-1.1Z" transform="translate(-636.603 -1245.802)" fill="#0477ff" stroke="#0477ff" stroke-width="0.3"/>
        <path id="Path_140503" data-name="Path 140503" d="M699.3,1186.4h1.1v1.1h-1.1Z" transform="translate(-696.005 -1186.4)" fill="#0477ff" stroke="#0477ff" stroke-width="0.3"/>
        <path id="Path_140504" data-name="Path 140504" d="M759.8,1246.9h1.1v1.1h-1.1Z" transform="translate(-755.406 -1245.802)" fill="#0477ff" stroke="#0477ff" stroke-width="0.3"/>
        <path id="Path_140505" data-name="Path 140505" d="M820.2,1186.4h1.1v1.1h-1.1Z" transform="translate(-814.71 -1186.4)" fill="#0477ff" stroke="#0477ff" stroke-width="0.3"/>
        <path id="Path_140506" data-name="Path 140506" d="M880.7,1246.9h1.1v1.1h-1.1Z" transform="translate(-874.111 -1245.802)" fill="#0477ff" stroke="#0477ff" stroke-width="0.3"/>
        <path id="Path_140507" data-name="Path 140507" d="M941.2,1186.4h1.1v1.1h-1.1Z" transform="translate(-933.513 -1186.4)" fill="#0477ff" stroke="#0477ff" stroke-width="0.3"/>
        <path id="Path_140508" data-name="Path 140508" d="M1001.7,1246.9h1.1v1.1h-1.1Z" transform="translate(-992.914 -1245.802)" fill="#0477ff" stroke="#0477ff" stroke-width="0.3"/>
      </g>
      <path id="Path_140509" data-name="Path 140509" d="M524.635,665.643h-3.791a.434.434,0,0,1-.416-.563l.387-1.26a1.157,1.157,0,0,1,1.111-.821h1.629a1.157,1.157,0,0,1,1.111.821l.387,1.26a.434.434,0,0,1-.417.563Zm-3.2-.872h2.611l-.214-.7a.288.288,0,0,0-.278-.205h-1.627a.288.288,0,0,0-.278.205Z" transform="translate(-511.36 -663)" fill="#0477ff" stroke="#0477ff" stroke-width="0.3"/>
    </g>
  </g>
</svg>
