<svg xmlns="http://www.w3.org/2000/svg" width="23.095" height="28.786" viewBox="0 0 23.095 28.786">
  <g id="luggage" transform="translate(0 10)">
    <g id="Group_8146" data-name="Group 8146" transform="translate(0 -10)">
      <path id="Path_7522" data-name="Path 7522" d="M20.626,56.937h-5.06V43.89a.726.726,0,0,0-.726-.726H8.256a.726.726,0,0,0-.726.726V56.937H2.469A2.472,2.472,0,0,0,0,59.406V69.48A2.472,2.472,0,0,0,2.469,71.95H20.626a2.472,2.472,0,0,0,2.469-2.469V59.406A2.472,2.472,0,0,0,20.626,56.937ZM8.982,44.617h5.13V56.937H8.982ZM4.017,70.5H2.469a1.018,1.018,0,0,1-1.016-1.016V59.406A1.018,1.018,0,0,1,2.469,58.39H4.017Zm13.608,0H5.47V58.39H17.625V70.5Zm4.017-1.016A1.018,1.018,0,0,1,20.626,70.5H19.078V58.39h1.548a1.018,1.018,0,0,1,1.016,1.016Z" transform="translate(0 -43.164)" fill="#5f6368"/>
    </g>
  </g>
</svg>
