<svg id="Group_118912" data-name="Group 118912" xmlns="http://www.w3.org/2000/svg" width="10.719" height="18.075" viewBox="0 0 10.719 18.075">
  <g id="Group_23421" data-name="Group 23421" transform="translate(0 0)">
    <path id="Path_27514" data-name="Path 27514" d="M1.4,74H9.323a1.543,1.543,0,0,1,1.4,1.656v5.857a1.543,1.543,0,0,1-1.4,1.656H1.4A1.543,1.543,0,0,1,0,81.513V75.656A1.543,1.543,0,0,1,1.4,74m6.518,7.912h.623V75.257H7.914Zm-5.733,0H2.8V75.257H2.181Z" transform="translate(0 -65.095)" fill="#20595e"/>
    <path id="Path_27515" data-name="Path 27515" d="M101.988,11.912V.935a.312.312,0,0,0-.312-.312H98.935a.312.312,0,0,0-.312.312V11.912H98V.935A.936.936,0,0,1,98.935,0h2.742a.936.936,0,0,1,.935.935V11.912Z" transform="translate(-94.946 0)" fill="#20595e"/>
  </g>
</svg>
