<svg xmlns="http://www.w3.org/2000/svg" width="19.072" height="31.419" viewBox="0 0 19.072 31.419">
  <g id="Group_52137" data-name="Group 52137" transform="translate(0 3)">
    <path id="Path_7518" data-name="Path 7518" d="M95.6,4.146H93.87V-1.266a.867.867,0,0,0,.867-.867A.867.867,0,0,0,93.87-3H85.2a.867.867,0,0,0-.867.867.867.867,0,0,0,.867.867V4.146H83.468A3.472,3.472,0,0,0,80,7.613v15.6a3.472,3.472,0,0,0,3.468,3.468H83.9v.867a.867.867,0,1,0,1.734,0v-.867h7.8v.867a.867.867,0,1,0,1.734,0v-.867H95.6a3.472,3.472,0,0,0,3.468-3.468V7.613A3.472,3.472,0,0,0,95.6,4.146ZM86.935-1.266h5.2V4.146h-5.2Zm10.4,24.484A1.736,1.736,0,0,1,95.6,24.951H83.468a1.736,1.736,0,0,1-1.734-1.734V7.613a1.736,1.736,0,0,1,1.734-1.734H95.6a1.736,1.736,0,0,1,1.734,1.734Z" transform="translate(-80 0)" fill="#5f6368"/>
    <path id="Path_7548" data-name="Path 7548" d="M64.713,176a.654.654,0,0,0-.713.57v15.381a.731.731,0,0,0,1.426,0V176.57A.654.654,0,0,0,64.713,176Zm0,0" transform="translate(-58.055 -168.693)" fill="#5f6368"/>
    <path id="Path_7547" data-name="Path 7547" d="M192.713,176a.654.654,0,0,0-.713.57v15.381a.731.731,0,0,0,1.426,0V176.57A.653.653,0,0,0,192.713,176Zm0,0" transform="translate(-180.299 -168.693)" fill="#5f6368"/>
  </g>
</svg>
