<svg xmlns="http://www.w3.org/2000/svg" width="9.063" height="19.183" viewBox="0 0 9.063 19.183">
  <g id="Group_118911" data-name="Group 118911" transform="translate(0)">
    <path id="Path_34531" data-name="Path 34531" d="M34.24,6.414H33.7v-4.7A.707.707,0,0,0,33,1H30.18a.707.707,0,0,0-.707.707V6.4h-.53A1.889,1.889,0,0,0,27.06,8.288v8.523a1.889,1.889,0,0,0,1.883,1.883h5.3a1.889,1.889,0,0,0,1.883-1.883V8.3A1.889,1.889,0,0,0,34.24,6.414Zm-4.3-4.3h3.3v4.06h-3.3Zm4.473,13.475H28.81a.235.235,0,0,1,0-.47h5.606a.235.235,0,0,1,0,.47Zm0-2.825H28.81a.235.235,0,0,1,0-.47h5.606a.235.235,0,1,1,0,.47Zm0-2.825H28.81a.235.235,0,0,1,0-.47h5.606a.235.235,0,0,1,0,.47Z" transform="translate(-27.06 -1)" fill="#20595e"/>
    <rect id="Rectangle_41539" data-name="Rectangle 41539" width="0.699" height="1.174" transform="translate(1.331 18.009)" fill="#20595e"/>
    <rect id="Rectangle_41540" data-name="Rectangle 41540" width="0.699" height="1.174" transform="translate(6.98 18.009)" fill="#20595e"/>
  </g>
</svg>
