<svg width="19" height="18" viewBox="0 0 19 18" fill="none" xmlns="http://www.w3.org/2000/svg">
<path d="M18.5202 10.125C18.5202 10.3712 18.4727 10.615 18.3802 10.8425C18.2878 11.07 18.1523 11.2767 17.9816 11.4508C17.8108 11.6249 17.608 11.763 17.3849 11.8573C17.1618 11.9515 16.9226 12 16.6811 12H13.712L10.6031 16.8652C10.4117 17.2113 10.1332 17.4989 9.79629 17.6984C9.45937 17.8979 9.0763 18.002 8.68668 18C8.37407 18.0001 8.06609 17.9229 7.78914 17.7751C7.51218 17.6273 7.2745 17.4132 7.09645 17.1513C6.9184 16.8893 6.80529 16.5872 6.7668 16.271C6.72832 15.9547 6.76561 15.6336 6.87548 15.3352L8.23498 12H5.27836C4.75963 12 4.2501 11.8603 3.80142 11.5949C3.35274 11.3295 2.98084 10.9479 2.72342 10.4887L1.01154 7.62C0.938391 7.49617 0.890319 7.35865 0.870159 7.21557C0.85 7.07248 0.858161 6.92673 0.894161 6.78691C0.930161 6.6471 0.993271 6.51605 1.07976 6.4015C1.16626 6.28696 1.27438 6.19125 1.39776 6.12001C1.59354 6.01535 1.81696 5.97711 2.03554 6.01083C2.25411 6.04455 2.45643 6.14848 2.61307 6.3075L3.6555 7.371C4.20722 7.93365 4.95557 8.24983 5.73595 8.25H16.6811C16.9226 8.25 17.1618 8.2985 17.3849 8.39272C17.608 8.48695 17.8108 8.62506 17.9816 8.79917C18.1523 8.97328 18.2878 9.17998 18.3802 9.40746C18.4727 9.63495 18.5202 9.87877 18.5202 10.125ZM13.9084 6.75L10.5979 1.13477C10.4068 0.789026 10.1287 0.501566 9.79215 0.30208C9.45564 0.102594 9.07299 -0.00168281 8.68373 2.05381e-05C8.37118 0.000107304 8.06331 0.0773881 7.78644 0.225251C7.50958 0.373113 7.27198 0.587155 7.09396 0.849064C6.91595 1.11097 6.80282 1.41295 6.76426 1.72916C6.7257 2.04536 6.76285 2.36639 6.87254 2.66476L8.43067 6.75H13.9084Z" fill="#071334" fill-opacity="0.5"/>
</svg>
