<svg xmlns="http://www.w3.org/2000/svg" width="18" height="18" viewBox="0 0 26.971 19"><defs><style>.a,.b{fill:#4f8ffc;}.a{font-size:15px;font-family:Montserrat-Medium, Montserrat;font-weight:500;}</style></defs><g transform="translate(-943.029 -283.5)"><text class="a" transform="translate(961 298.5)"><tspan x="0" y="0">+</tspan></text><g transform="translate(943.03 294) rotate(-45)"><g transform="translate(0 0)"><path class="b" d="M11.661.339a1.158,1.158,0,0,0-1.654.017L7.549,2.917,1.55.932.291,2.191l5,3.079L2.761,7.907,1.138,7.641,0,8.779l2.385.836L3.221,12l1.138-1.138L4.093,9.239l2.637-2.53,3.079,5,1.259-1.259-1.985-6,2.562-2.458A1.158,1.158,0,0,0,11.661.339Z" transform="translate(0 0)"/></g></g></g></svg>