<svg width="17" height="14" viewBox="0 0 17 14" fill="none" xmlns="http://www.w3.org/2000/svg">
<mask id="path-1-inside-1_3491_25186" fill="white">
<path d="M13.8401 9.81041C13.6233 10.4498 13.2552 10.9855 12.7147 11.448C12.262 11.8355 11.7157 12.1275 11.0449 12.3406C10.5754 12.4898 10.0585 12.5926 9.46466 12.655C9.0605 12.6974 8.65203 12.7101 8.27073 12.7173C7.78817 12.7134 7.31651 12.6929 6.86878 12.6559C6.22247 12.6027 5.54249 12.5155 4.78981 12.3896C4.764 12.3853 4.6857 12.3722 4.62085 12.4373C4.55618 12.5021 4.55667 12.5933 4.55687 12.6234C4.55834 12.8659 4.55844 13.1293 4.55736 13.4521C4.55707 13.5357 4.52734 13.6048 4.47563 13.6414C4.42235 13.6793 4.35268 13.6785 4.28459 13.6394C3.76327 13.3397 3.23342 13.0344 2.72113 12.7391C2.52136 12.624 2.32169 12.509 2.12191 12.3939C1.95089 12.2954 1.77977 12.1968 1.60864 12.0983C1.17162 11.8467 0.719673 11.5865 0.27558 11.3297C0.219553 11.2973 0.181581 11.2462 0.168727 11.1859C0.156854 11.1305 0.167844 11.072 0.199439 11.0213C0.21553 10.9955 0.239962 10.9738 0.276071 10.9529C0.992939 10.5404 1.70961 10.1275 2.42638 9.71456L3.1351 9.30619C3.51709 9.08612 3.89907 8.86594 4.28125 8.6461C4.31716 8.62541 4.35258 8.61524 4.38575 8.61524C4.44472 8.61524 4.49662 8.64734 4.53146 8.70894C4.54951 8.74093 4.55785 8.77676 4.55785 8.82197C4.55785 8.94822 4.55785 9.07448 4.55785 9.20062C4.55795 9.45233 4.55805 9.71253 4.55658 9.96808C4.5555 10.1726 4.67932 10.2244 4.75321 10.2371C5.30239 10.3311 5.74933 10.398 6.15996 10.4476C6.75536 10.5194 7.29365 10.5615 7.80534 10.5763C8.75868 10.6038 9.52481 10.5402 10.2165 10.376C10.6572 10.2715 11.0099 10.1342 11.3262 9.94424C11.5315 9.82103 11.791 9.64053 11.9781 9.33569C12.1787 9.00915 12.246 8.65333 12.1785 8.27808C12.1235 7.97312 12.1841 7.66693 12.3411 7.42347C12.4976 7.18079 12.7313 7.03205 12.9993 7.00469C13.4577 6.95801 13.8754 7.31382 13.9766 7.82709C14.1074 8.49046 14.0616 9.15767 13.8401 9.81041Z"/>
<path d="M16.8307 2.7421C16.8309 2.87673 16.7787 2.9687 16.6662 3.03142C15.9192 3.44783 15.1724 3.86457 14.4256 4.28131L13.5805 4.75279C13.5172 4.78813 13.4539 4.82359 13.3906 4.85905C13.2394 4.94371 13.0829 5.03135 12.9287 5.11579C12.8544 5.15645 12.7723 5.16033 12.6976 5.12654C12.6219 5.09241 12.5645 5.02482 12.536 4.93639C12.528 4.91146 12.5244 4.88077 12.5245 4.83667C12.5247 4.59101 12.5246 4.34535 12.5245 4.0997C12.5244 4.04596 12.5244 3.97892 12.4796 3.91908C12.433 3.8567 12.3704 3.84606 12.3246 3.83831C11.8313 3.75443 11.3882 3.68961 10.97 3.64019C10.427 3.57603 9.92688 3.53503 9.44136 3.51486C9.06436 3.49935 8.72182 3.49769 8.39396 3.50988C7.65982 3.53714 7.06866 3.62279 6.53369 3.77958C6.11598 3.90202 5.78982 4.05161 5.50724 4.25039C5.20491 4.46314 5.01268 4.69849 4.90237 4.99113C4.80587 5.24687 4.78253 5.48787 4.83079 5.72788C4.88957 6.01974 4.83238 6.32667 4.67391 6.56978C4.51515 6.81333 4.2707 6.96868 4.00321 6.99616C3.53268 7.04447 3.09532 6.68269 3.00755 6.17254C2.82883 5.13385 3.03644 4.18823 3.62473 3.36195C3.98792 2.8518 4.46511 2.45102 5.08348 2.13677C5.63304 1.85754 6.26015 1.66407 7.00064 1.5454C7.35004 1.48944 7.71542 1.45155 8.08666 1.4326C8.34889 1.41919 8.56325 1.41299 8.76888 1.41299C8.79708 1.41299 8.82508 1.41321 8.85307 1.41343H8.85635C9.2262 1.40756 9.60926 1.42817 9.93522 1.44922C10.3505 1.47592 10.7899 1.51825 11.2411 1.57499C11.5904 1.61898 11.9446 1.66995 12.2938 1.72668C12.3602 1.73743 12.4154 1.72214 12.4579 1.68114C12.4869 1.6531 12.5216 1.60102 12.5216 1.5116C12.5217 1.42628 12.5223 1.3393 12.523 1.2552C12.5235 1.17786 12.5241 1.09786 12.5243 1.01896C12.5244 0.965331 12.5237 0.911369 12.5231 0.859179C12.5223 0.788485 12.5215 0.715353 12.5225 0.64477C12.524 0.535404 12.5726 0.43989 12.656 0.382603C12.7382 0.326092 12.8353 0.320663 12.9221 0.367644C13.1554 0.493852 13.3913 0.626265 13.6194 0.754357C13.7137 0.807211 13.8079 0.860176 13.9022 0.912809C14.188 1.07226 14.4737 1.23182 14.7596 1.39127C15.3835 1.73964 16.0288 2.09976 16.6635 2.45357C16.7773 2.51695 16.8304 2.60858 16.8307 2.7421Z"/>
</mask>
<path d="M13.8401 9.81041C13.6233 10.4498 13.2552 10.9855 12.7147 11.448C12.262 11.8355 11.7157 12.1275 11.0449 12.3406C10.5754 12.4898 10.0585 12.5926 9.46466 12.655C9.0605 12.6974 8.65203 12.7101 8.27073 12.7173C7.78817 12.7134 7.31651 12.6929 6.86878 12.6559C6.22247 12.6027 5.54249 12.5155 4.78981 12.3896C4.764 12.3853 4.6857 12.3722 4.62085 12.4373C4.55618 12.5021 4.55667 12.5933 4.55687 12.6234C4.55834 12.8659 4.55844 13.1293 4.55736 13.4521C4.55707 13.5357 4.52734 13.6048 4.47563 13.6414C4.42235 13.6793 4.35268 13.6785 4.28459 13.6394C3.76327 13.3397 3.23342 13.0344 2.72113 12.7391C2.52136 12.624 2.32169 12.509 2.12191 12.3939C1.95089 12.2954 1.77977 12.1968 1.60864 12.0983C1.17162 11.8467 0.719673 11.5865 0.27558 11.3297C0.219553 11.2973 0.181581 11.2462 0.168727 11.1859C0.156854 11.1305 0.167844 11.072 0.199439 11.0213C0.21553 10.9955 0.239962 10.9738 0.276071 10.9529C0.992939 10.5404 1.70961 10.1275 2.42638 9.71456L3.1351 9.30619C3.51709 9.08612 3.89907 8.86594 4.28125 8.6461C4.31716 8.62541 4.35258 8.61524 4.38575 8.61524C4.44472 8.61524 4.49662 8.64734 4.53146 8.70894C4.54951 8.74093 4.55785 8.77676 4.55785 8.82197C4.55785 8.94822 4.55785 9.07448 4.55785 9.20062C4.55795 9.45233 4.55805 9.71253 4.55658 9.96808C4.5555 10.1726 4.67932 10.2244 4.75321 10.2371C5.30239 10.3311 5.74933 10.398 6.15996 10.4476C6.75536 10.5194 7.29365 10.5615 7.80534 10.5763C8.75868 10.6038 9.52481 10.5402 10.2165 10.376C10.6572 10.2715 11.0099 10.1342 11.3262 9.94424C11.5315 9.82103 11.791 9.64053 11.9781 9.33569C12.1787 9.00915 12.246 8.65333 12.1785 8.27808C12.1235 7.97312 12.1841 7.66693 12.3411 7.42347C12.4976 7.18079 12.7313 7.03205 12.9993 7.00469C13.4577 6.95801 13.8754 7.31382 13.9766 7.82709C14.1074 8.49046 14.0616 9.15767 13.8401 9.81041Z" fill="#fd5003"/>
<path d="M16.8307 2.7421C16.8309 2.87673 16.7787 2.9687 16.6662 3.03142C15.9192 3.44783 15.1724 3.86457 14.4256 4.28131L13.5805 4.75279C13.5172 4.78813 13.4539 4.82359 13.3906 4.85905C13.2394 4.94371 13.0829 5.03135 12.9287 5.11579C12.8544 5.15645 12.7723 5.16033 12.6976 5.12654C12.6219 5.09241 12.5645 5.02482 12.536 4.93639C12.528 4.91146 12.5244 4.88077 12.5245 4.83667C12.5247 4.59101 12.5246 4.34535 12.5245 4.0997C12.5244 4.04596 12.5244 3.97892 12.4796 3.91908C12.433 3.8567 12.3704 3.84606 12.3246 3.83831C11.8313 3.75443 11.3882 3.68961 10.97 3.64019C10.427 3.57603 9.92688 3.53503 9.44136 3.51486C9.06436 3.49935 8.72182 3.49769 8.39396 3.50988C7.65982 3.53714 7.06866 3.62279 6.53369 3.77958C6.11598 3.90202 5.78982 4.05161 5.50724 4.25039C5.20491 4.46314 5.01268 4.69849 4.90237 4.99113C4.80587 5.24687 4.78253 5.48787 4.83079 5.72788C4.88957 6.01974 4.83238 6.32667 4.67391 6.56978C4.51515 6.81333 4.2707 6.96868 4.00321 6.99616C3.53268 7.04447 3.09532 6.68269 3.00755 6.17254C2.82883 5.13385 3.03644 4.18823 3.62473 3.36195C3.98792 2.8518 4.46511 2.45102 5.08348 2.13677C5.63304 1.85754 6.26015 1.66407 7.00064 1.5454C7.35004 1.48944 7.71542 1.45155 8.08666 1.4326C8.34889 1.41919 8.56325 1.41299 8.76888 1.41299C8.79708 1.41299 8.82508 1.41321 8.85307 1.41343H8.85635C9.2262 1.40756 9.60926 1.42817 9.93522 1.44922C10.3505 1.47592 10.7899 1.51825 11.2411 1.57499C11.5904 1.61898 11.9446 1.66995 12.2938 1.72668C12.3602 1.73743 12.4154 1.72214 12.4579 1.68114C12.4869 1.6531 12.5216 1.60102 12.5216 1.5116C12.5217 1.42628 12.5223 1.3393 12.523 1.2552C12.5235 1.17786 12.5241 1.09786 12.5243 1.01896C12.5244 0.965331 12.5237 0.911369 12.5231 0.859179C12.5223 0.788485 12.5215 0.715353 12.5225 0.64477C12.524 0.535404 12.5726 0.43989 12.656 0.382603C12.7382 0.326092 12.8353 0.320663 12.9221 0.367644C13.1554 0.493852 13.3913 0.626265 13.6194 0.754357C13.7137 0.807211 13.8079 0.860176 13.9022 0.912809C14.188 1.07226 14.4737 1.23182 14.7596 1.39127C15.3835 1.73964 16.0288 2.09976 16.6635 2.45357C16.7773 2.51695 16.8304 2.60858 16.8307 2.7421Z" fill="#fd5003"/>
<path d="M13.8401 9.81041L12.8932 9.48912L12.8931 9.48924L13.8401 9.81041ZM12.7147 11.448L12.0645 10.6882L12.0644 10.6883L12.7147 11.448ZM11.0449 12.3406L10.7422 11.3875L10.742 11.3875L11.0449 12.3406ZM9.46466 12.655L9.56896 13.6496L9.56915 13.6495L9.46466 12.655ZM8.27073 12.7173L8.26277 13.7173L8.27623 13.7174L8.2897 13.7171L8.27073 12.7173ZM6.86878 12.6559L6.95106 11.6593L6.95088 11.6593L6.86878 12.6559ZM4.78981 12.3896L4.9548 11.4033L4.95399 11.4032L4.78981 12.3896ZM4.62085 12.4373L5.32852 13.1439L5.32929 13.1431L4.62085 12.4373ZM4.55687 12.6234L5.55685 12.6173L5.55685 12.6168L4.55687 12.6234ZM4.55736 13.4521L5.55735 13.4556L5.55736 13.4554L4.55736 13.4521ZM4.47563 13.6414L3.89767 12.8253L3.89634 12.8263L4.47563 13.6414ZM4.28459 13.6394L3.78626 14.5064L3.78656 14.5065L4.28459 13.6394ZM2.72113 12.7391L3.2206 11.8728L3.22024 11.8726L2.72113 12.7391ZM2.12191 12.3939L1.62259 13.2603L1.62281 13.2605L2.12191 12.3939ZM1.60864 12.0983L1.10971 12.965L1.10997 12.9651L1.60864 12.0983ZM0.27558 11.3297L-0.225488 12.1952L-0.225011 12.1954L0.27558 11.3297ZM0.168727 11.1859L1.14679 10.9776L1.14651 10.9763L0.168727 11.1859ZM0.199439 11.0213L-0.64878 10.4916L-0.64949 10.4928L0.199439 11.0213ZM0.276071 10.9529L-0.222726 10.0862L-0.225065 10.0875L0.276071 10.9529ZM2.42638 9.71456L2.92553 10.5811L2.92564 10.581L2.42638 9.71456ZM3.1351 9.30619L2.63591 8.4397L2.63585 8.43973L3.1351 9.30619ZM4.28125 8.6461L4.77987 9.51292L4.78035 9.51264L4.28125 8.6461ZM4.53146 8.70894L5.40232 8.21741L5.40193 8.21672L4.53146 8.70894ZM4.55785 9.20062L3.55785 9.20062L3.55785 9.20101L4.55785 9.20062ZM4.55658 9.96808L3.55659 9.96233L3.55659 9.96281L4.55658 9.96808ZM4.75321 10.2371L4.58433 11.2227L4.58443 11.2227L4.75321 10.2371ZM6.15996 10.4476L6.27983 9.45476L6.27966 9.45474L6.15996 10.4476ZM7.80534 10.5763L7.77642 11.5759L7.77655 11.5759L7.80534 10.5763ZM10.2165 10.376L9.98565 9.40301L9.98543 9.40306L10.2165 10.376ZM11.3262 9.94424L10.8116 9.08682L10.8113 9.08698L11.3262 9.94424ZM11.9781 9.33569L11.126 8.81233L11.1259 8.81256L11.9781 9.33569ZM12.1785 8.27808L13.1627 8.10102L13.1626 8.10075L12.1785 8.27808ZM12.3411 7.42347L11.5007 6.88149L11.5007 6.88154L12.3411 7.42347ZM12.9993 7.00469L12.898 6.00984L12.8977 6.00986L12.9993 7.00469ZM13.9766 7.82709L14.9577 7.63365L14.9577 7.63353L13.9766 7.82709ZM16.8307 2.7421L17.8307 2.74063L17.8307 2.73987L16.8307 2.7421ZM16.6662 3.03142L17.1531 3.90489L17.1532 3.90485L16.6662 3.03142ZM14.4256 4.28131L14.9128 5.15458L14.9128 5.15456L14.4256 4.28131ZM13.5805 4.75279L13.0933 3.87951L13.0932 3.87954L13.5805 4.75279ZM13.3906 4.85905L12.9021 3.98645L12.9021 3.98648L13.3906 4.85905ZM12.9287 5.11579L13.409 5.99291L13.409 5.9929L12.9287 5.11579ZM12.6976 5.12654L13.11 4.21551L13.1084 4.21478L12.6976 5.12654ZM12.536 4.93639L13.4878 4.62966L13.4877 4.62939L12.536 4.93639ZM12.5245 4.83667L13.5245 4.83892L13.5245 4.83748L12.5245 4.83667ZM12.5245 4.0997L13.5245 4.09929L13.5245 4.09785L12.5245 4.0997ZM12.4796 3.91908L11.6782 4.51726L11.679 4.51825L12.4796 3.91908ZM12.3246 3.83831L12.157 4.82415L12.1575 4.82425L12.3246 3.83831ZM10.97 3.64019L11.0874 2.6471L11.0873 2.64709L10.97 3.64019ZM9.44136 3.51486L9.48286 2.51573L9.48247 2.51571L9.44136 3.51486ZM8.39396 3.50988L8.43107 4.50919L8.43112 4.50919L8.39396 3.50988ZM6.53369 3.77958L6.25244 2.81995L6.2524 2.81996L6.53369 3.77958ZM5.50724 4.25039L4.93187 3.4325L4.93176 3.43258L5.50724 4.25039ZM4.90237 4.99113L5.83797 5.3442L5.8381 5.34385L4.90237 4.99113ZM4.83079 5.72788L3.85041 5.92499L3.85047 5.92531L4.83079 5.72788ZM4.67391 6.56978L5.51164 7.11587L5.51165 7.11585L4.67391 6.56978ZM4.00321 6.99616L4.10535 7.99093L4.10541 7.99093L4.00321 6.99616ZM3.00755 6.17254L3.99307 6.00298L3.99306 6.00297L3.00755 6.17254ZM3.62473 3.36195L4.43935 3.94194L4.43936 3.94193L3.62473 3.36195ZM5.08348 2.13677L4.6305 1.24525L4.63044 1.24528L5.08348 2.13677ZM7.00064 1.5454L6.84251 0.557983L6.8424 0.558L7.00064 1.5454ZM8.08666 1.4326L8.13764 2.4313L8.13773 2.4313L8.08666 1.4326ZM8.85307 1.41343L8.84516 2.41343H8.85307V1.41343ZM8.85635 1.41343V2.41343H8.86429L8.87223 2.4133L8.85635 1.41343ZM9.93522 1.44922L9.87077 2.44714L9.87106 2.44716L9.93522 1.44922ZM11.2411 1.57499L11.366 0.582822L11.3658 0.582799L11.2411 1.57499ZM12.2938 1.72668L12.1335 2.71374L12.1339 2.7138L12.2938 1.72668ZM12.4579 1.68114L11.764 0.961061L11.7635 0.961465L12.4579 1.68114ZM12.5216 1.5116L11.5216 1.51044V1.5116H12.5216ZM12.523 1.2552L13.523 1.26346L13.523 1.26162L12.523 1.2552ZM12.5243 1.01896L13.5243 1.02148L13.5243 1.02081L12.5243 1.01896ZM12.5231 0.859179L11.5232 0.870414L11.5232 0.870593L12.5231 0.859179ZM12.5225 0.64477L13.5224 0.658835L13.5224 0.658386L12.5225 0.64477ZM12.656 0.382603L13.2222 1.20689L13.2225 1.20669L12.656 0.382603ZM12.9221 0.367644L13.398 -0.511845L13.3978 -0.511974L12.9221 0.367644ZM13.6194 0.754357L13.1299 1.62634L13.1302 1.62651L13.6194 0.754357ZM13.9022 0.912809L14.3895 0.0395589L13.9022 0.912809ZM14.7596 1.39127L15.2471 0.518151L15.2467 0.517947L14.7596 1.39127ZM16.6635 2.45357L16.1767 3.32704L16.1769 3.32718L16.6635 2.45357ZM12.8931 9.48924C12.7372 9.94915 12.476 10.336 12.0645 10.6882L13.3649 12.2077C14.0343 11.6349 14.5094 10.9505 14.7872 10.1316L12.8931 9.48924ZM12.0644 10.6883C11.7301 10.9745 11.3082 11.2077 10.7422 11.3875L11.3476 13.2936C12.1233 13.0473 12.7938 12.6966 13.365 12.2076L12.0644 10.6883ZM10.742 11.3875C10.3489 11.5124 9.90027 11.6037 9.36017 11.6605L9.56915 13.6495C10.2167 13.5815 10.8018 13.4671 11.3477 13.2936L10.742 11.3875ZM9.36036 11.6605C9.00097 11.6982 8.62807 11.7103 8.25176 11.7175L8.2897 13.7171C8.67598 13.7098 9.12003 13.6966 9.56896 13.6496L9.36036 11.6605ZM8.27869 11.7173C7.81896 11.7137 7.37216 11.6941 6.95106 11.6593L6.78651 13.6525C7.26085 13.6917 7.75739 13.7132 8.26277 13.7173L8.27869 11.7173ZM6.95088 11.6593C6.33672 11.6087 5.68473 11.5254 4.9548 11.4033L4.62481 13.3759C5.40025 13.5056 6.10821 13.5967 6.78669 13.6525L6.95088 11.6593ZM4.95399 11.4032C4.90504 11.395 4.35665 11.2856 3.9124 11.7316L5.32929 13.1431C5.01475 13.4588 4.62297 13.3756 4.62563 13.376L4.95399 11.4032ZM3.91317 11.7308C3.52588 12.1187 3.55679 12.6148 3.55689 12.6299L5.55685 12.6168C5.55683 12.6135 5.55883 12.6813 5.53931 12.7665C5.51933 12.8538 5.46705 13.0051 5.32852 13.1439L3.91317 11.7308ZM3.55689 12.6294C3.55834 12.8679 3.55844 13.1279 3.55737 13.4487L5.55736 13.4554C5.55844 13.1307 5.55835 12.864 5.55685 12.6173L3.55689 12.6294ZM3.55737 13.4486C3.55781 13.3241 3.60403 13.0333 3.89767 12.8253L5.05358 14.4575C5.45064 14.1763 5.55633 13.7473 5.55735 13.4556L3.55737 13.4486ZM3.89634 12.8263C4.04782 12.7186 4.22512 12.6675 4.39651 12.6693C4.56145 12.6711 4.69307 12.7208 4.78261 12.7722L3.78656 14.5065C4.10828 14.6913 4.61074 14.7722 5.05492 14.4565L3.89634 12.8263ZM4.78291 12.7724C4.26217 12.4731 3.73277 12.168 3.2206 11.8728L2.22167 13.6054C2.73407 13.9008 3.26437 14.2064 3.78626 14.5064L4.78291 12.7724ZM3.22024 11.8726C3.1204 11.8151 3.02059 11.7576 2.92072 11.7C2.82086 11.6425 2.72096 11.5849 2.62102 11.5274L1.62281 13.2605C1.72264 13.318 1.82246 13.3755 1.92233 13.433C2.02218 13.4905 2.12209 13.5481 2.22203 13.6056L3.22024 11.8726ZM2.62123 11.5275C2.45007 11.4289 2.27872 11.3302 2.10732 11.2316L1.10997 12.9651C1.28081 13.0634 1.45171 13.1618 1.62259 13.2603L2.62123 11.5275ZM2.10758 11.2317C1.67042 10.98 1.2193 10.7203 0.776171 10.4641L-0.225011 12.1954C0.220047 12.4528 0.672817 12.7135 1.10971 12.965L2.10758 11.2317ZM0.776648 10.4643C0.951367 10.5655 1.09744 10.7458 1.14679 10.9776L-0.80934 11.3941C-0.734278 11.7466 -0.51226 12.0291 -0.225488 12.1952L0.776648 10.4643ZM1.14651 10.9763C1.19254 11.191 1.14448 11.3954 1.04837 11.5498L-0.64949 10.4928C-0.808795 10.7487 -0.878832 11.07 -0.809059 11.3955L1.14651 10.9763ZM1.04766 11.5509C0.950006 11.7073 0.830093 11.7876 0.777206 11.8183L-0.225065 10.0875C-0.350168 10.16 -0.518945 10.2837 -0.64878 10.4916L1.04766 11.5509ZM0.774866 11.8196C1.49196 11.4069 2.20885 10.9939 2.92553 10.5811L1.92723 8.84805C1.21037 9.26099 0.49392 9.67376 -0.222724 10.0862L0.774866 11.8196ZM2.92564 10.581L3.63436 10.1726L2.63585 8.43973L1.92712 8.84811L2.92564 10.581ZM3.6343 10.1727C4.01655 9.95245 4.39807 9.73254 4.77987 9.51292L3.78263 7.77928C3.40007 7.99934 3.01762 8.21978 2.63591 8.4397L3.6343 10.1727ZM4.78035 9.51264C4.69438 9.56216 4.55934 9.61524 4.38575 9.61524V7.61524C4.14583 7.61524 3.93994 7.68867 3.78215 7.77955L4.78035 9.51264ZM4.38575 9.61524C4.22684 9.61524 4.06797 9.56999 3.93064 9.48257C3.79702 9.3975 3.71167 9.2908 3.66098 9.20116L5.40193 8.21672C5.22013 7.89521 4.86309 7.61524 4.38575 7.61524V9.61524ZM3.6606 9.20047C3.62184 9.13181 3.59434 9.05953 3.57758 8.98773C3.56139 8.91833 3.55785 8.86061 3.55785 8.82197H5.55785C5.55785 8.64471 5.5228 8.43087 5.40232 8.21741L3.6606 9.20047ZM3.55785 8.82197C3.55785 8.82222 3.55785 8.82246 3.55785 8.82271C3.55785 8.82296 3.55785 8.8232 3.55785 8.82345C3.55785 8.8237 3.55785 8.82394 3.55785 8.82419C3.55785 8.82444 3.55785 8.82468 3.55785 8.82493C3.55785 8.82518 3.55785 8.82542 3.55785 8.82567C3.55785 8.82592 3.55785 8.82616 3.55785 8.82641C3.55785 8.82666 3.55785 8.8269 3.55785 8.82715C3.55785 8.8274 3.55785 8.82764 3.55785 8.82789C3.55785 8.82814 3.55785 8.82838 3.55785 8.82863C3.55785 8.82888 3.55785 8.82912 3.55785 8.82937C3.55785 8.82961 3.55785 8.82986 3.55785 8.83011C3.55785 8.83035 3.55785 8.8306 3.55785 8.83085C3.55785 8.83109 3.55785 8.83134 3.55785 8.83159C3.55785 8.83183 3.55785 8.83208 3.55785 8.83233C3.55785 8.83257 3.55785 8.83282 3.55785 8.83307C3.55785 8.83331 3.55785 8.83356 3.55785 8.83381C3.55785 8.83405 3.55785 8.8343 3.55785 8.83455C3.55785 8.83479 3.55785 8.83504 3.55785 8.83529C3.55785 8.83553 3.55785 8.83578 3.55785 8.83603C3.55785 8.83627 3.55785 8.83652 3.55785 8.83677C3.55785 8.83701 3.55785 8.83726 3.55785 8.83751C3.55785 8.83775 3.55785 8.838 3.55785 8.83825C3.55785 8.83849 3.55785 8.83874 3.55785 8.83899C3.55785 8.83923 3.55785 8.83948 3.55785 8.83973C3.55785 8.83997 3.55785 8.84022 3.55785 8.84046C3.55785 8.84071 3.55785 8.84096 3.55785 8.8412C3.55785 8.84145 3.55785 8.8417 3.55785 8.84194C3.55785 8.84219 3.55785 8.84244 3.55785 8.84268C3.55785 8.84293 3.55785 8.84318 3.55785 8.84342C3.55785 8.84367 3.55785 8.84392 3.55785 8.84416C3.55785 8.84441 3.55785 8.84466 3.55785 8.8449C3.55785 8.84515 3.55785 8.8454 3.55785 8.84564C3.55785 8.84589 3.55785 8.84614 3.55785 8.84638C3.55785 8.84663 3.55785 8.84688 3.55785 8.84712C3.55785 8.84737 3.55785 8.84762 3.55785 8.84786C3.55785 8.84811 3.55785 8.84836 3.55785 8.8486C3.55785 8.84885 3.55785 8.8491 3.55785 8.84934C3.55785 8.84959 3.55785 8.84984 3.55785 8.85008C3.55785 8.85033 3.55785 8.85057 3.55785 8.85082C3.55785 8.85107 3.55785 8.85131 3.55785 8.85156C3.55785 8.85181 3.55785 8.85205 3.55785 8.8523C3.55785 8.85255 3.55785 8.85279 3.55785 8.85304C3.55785 8.85329 3.55785 8.85353 3.55785 8.85378C3.55785 8.85403 3.55785 8.85427 3.55785 8.85452C3.55785 8.85477 3.55785 8.85501 3.55785 8.85526C3.55785 8.85551 3.55785 8.85575 3.55785 8.856C3.55785 8.85625 3.55785 8.85649 3.55785 8.85674C3.55785 8.85699 3.55785 8.85723 3.55785 8.85748C3.55785 8.85773 3.55785 8.85797 3.55785 8.85822C3.55785 8.85847 3.55785 8.85871 3.55785 8.85896C3.55785 8.85921 3.55785 8.85945 3.55785 8.8597C3.55785 8.85995 3.55785 8.86019 3.55785 8.86044C3.55785 8.86069 3.55785 8.86093 3.55785 8.86118C3.55785 8.86142 3.55785 8.86167 3.55785 8.86192C3.55785 8.86216 3.55785 8.86241 3.55785 8.86266C3.55785 8.8629 3.55785 8.86315 3.55785 8.8634C3.55785 8.86364 3.55785 8.86389 3.55785 8.86414C3.55785 8.86438 3.55785 8.86463 3.55785 8.86488C3.55785 8.86512 3.55785 8.86537 3.55785 8.86562C3.55785 8.86586 3.55785 8.86611 3.55785 8.86636C3.55785 8.8666 3.55785 8.86685 3.55785 8.8671C3.55785 8.86734 3.55785 8.86759 3.55785 8.86784C3.55785 8.86808 3.55785 8.86833 3.55785 8.86858C3.55785 8.86882 3.55785 8.86907 3.55785 8.86932C3.55785 8.86956 3.55785 8.86981 3.55785 8.87006C3.55785 8.8703 3.55785 8.87055 3.55785 8.8708C3.55785 8.87104 3.55785 8.87129 3.55785 8.87153C3.55785 8.87178 3.55785 8.87203 3.55785 8.87227C3.55785 8.87252 3.55785 8.87277 3.55785 8.87301C3.55785 8.87326 3.55785 8.87351 3.55785 8.87375C3.55785 8.874 3.55785 8.87425 3.55785 8.87449C3.55785 8.87474 3.55785 8.87499 3.55785 8.87523C3.55785 8.87548 3.55785 8.87573 3.55785 8.87597C3.55785 8.87622 3.55785 8.87647 3.55785 8.87671C3.55785 8.87696 3.55785 8.87721 3.55785 8.87745C3.55785 8.8777 3.55785 8.87795 3.55785 8.87819C3.55785 8.87844 3.55785 8.87869 3.55785 8.87893C3.55785 8.87918 3.55785 8.87943 3.55785 8.87967C3.55785 8.87992 3.55785 8.88017 3.55785 8.88041C3.55785 8.88066 3.55785 8.8809 3.55785 8.88115C3.55785 8.8814 3.55785 8.88164 3.55785 8.88189C3.55785 8.88214 3.55785 8.88238 3.55785 8.88263C3.55785 8.88288 3.55785 8.88312 3.55785 8.88337C3.55785 8.88362 3.55785 8.88386 3.55785 8.88411C3.55785 8.88436 3.55785 8.8846 3.55785 8.88485C3.55785 8.8851 3.55785 8.88534 3.55785 8.88559C3.55785 8.88584 3.55785 8.88608 3.55785 8.88633C3.55785 8.88658 3.55785 8.88682 3.55785 8.88707C3.55785 8.88732 3.55785 8.88756 3.55785 8.88781C3.55785 8.88806 3.55785 8.8883 3.55785 8.88855C3.55785 8.8888 3.55785 8.88904 3.55785 8.88929C3.55785 8.88954 3.55785 8.88978 3.55785 8.89003C3.55785 8.89028 3.55785 8.89052 3.55785 8.89077C3.55785 8.89101 3.55785 8.89126 3.55785 8.89151C3.55785 8.89175 3.55785 8.892 3.55785 8.89225C3.55785 8.89249 3.55785 8.89274 3.55785 8.89299C3.55785 8.89323 3.55785 8.89348 3.55785 8.89373C3.55785 8.89397 3.55785 8.89422 3.55785 8.89447C3.55785 8.89471 3.55785 8.89496 3.55785 8.89521C3.55785 8.89545 3.55785 8.8957 3.55785 8.89595C3.55785 8.89619 3.55785 8.89644 3.55785 8.89669C3.55785 8.89693 3.55785 8.89718 3.55785 8.89743C3.55785 8.89767 3.55785 8.89792 3.55785 8.89817C3.55785 8.89841 3.55785 8.89866 3.55785 8.89891C3.55785 8.89915 3.55785 8.8994 3.55785 8.89965C3.55785 8.89989 3.55785 8.90014 3.55785 8.90038C3.55785 8.90063 3.55785 8.90088 3.55785 8.90112C3.55785 8.90137 3.55785 8.90162 3.55785 8.90186C3.55785 8.90211 3.55785 8.90236 3.55785 8.9026C3.55785 8.90285 3.55785 8.9031 3.55785 8.90334C3.55785 8.90359 3.55785 8.90384 3.55785 8.90408C3.55785 8.90433 3.55785 8.90458 3.55785 8.90482C3.55785 8.90507 3.55785 8.90532 3.55785 8.90556C3.55785 8.90581 3.55785 8.90606 3.55785 8.9063C3.55785 8.90655 3.55785 8.9068 3.55785 8.90704C3.55785 8.90729 3.55785 8.90754 3.55785 8.90778C3.55785 8.90803 3.55785 8.90828 3.55785 8.90852C3.55785 8.90877 3.55785 8.90902 3.55785 8.90926C3.55785 8.90951 3.55785 8.90975 3.55785 8.91C3.55785 8.91025 3.55785 8.91049 3.55785 8.91074C3.55785 8.91099 3.55785 8.91123 3.55785 8.91148C3.55785 8.91173 3.55785 8.91197 3.55785 8.91222C3.55785 8.91247 3.55785 8.91271 3.55785 8.91296C3.55785 8.91321 3.55785 8.91345 3.55785 8.9137C3.55785 8.91395 3.55785 8.91419 3.55785 8.91444C3.55785 8.91469 3.55785 8.91493 3.55785 8.91518C3.55785 8.91543 3.55785 8.91567 3.55785 8.91592C3.55785 8.91617 3.55785 8.91641 3.55785 8.91666C3.55785 8.91691 3.55785 8.91715 3.55785 8.9174C3.55785 8.91765 3.55785 8.91789 3.55785 8.91814C3.55785 8.91838 3.55785 8.91863 3.55785 8.91888C3.55785 8.91912 3.55785 8.91937 3.55785 8.91962C3.55785 8.91986 3.55785 8.92011 3.55785 8.92036C3.55785 8.9206 3.55785 8.92085 3.55785 8.9211C3.55785 8.92134 3.55785 8.92159 3.55785 8.92184C3.55785 8.92208 3.55785 8.92233 3.55785 8.92258C3.55785 8.92282 3.55785 8.92307 3.55785 8.92332C3.55785 8.92356 3.55785 8.92381 3.55785 8.92406C3.55785 8.9243 3.55785 8.92455 3.55785 8.9248C3.55785 8.92504 3.55785 8.92529 3.55785 8.92554C3.55785 8.92578 3.55785 8.92603 3.55785 8.92628C3.55785 8.92652 3.55785 8.92677 3.55785 8.92701C3.55785 8.92726 3.55785 8.92751 3.55785 8.92775C3.55785 8.928 3.55785 8.92825 3.55785 8.92849C3.55785 8.92874 3.55785 8.92899 3.55785 8.92923C3.55785 8.92948 3.55785 8.92973 3.55785 8.92997C3.55785 8.93022 3.55785 8.93047 3.55785 8.93071C3.55785 8.93096 3.55785 8.93121 3.55785 8.93145C3.55785 8.9317 3.55785 8.93195 3.55785 8.93219C3.55785 8.93244 3.55785 8.93269 3.55785 8.93293C3.55785 8.93318 3.55785 8.93343 3.55785 8.93367C3.55785 8.93392 3.55785 8.93417 3.55785 8.93441C3.55785 8.93466 3.55785 8.93491 3.55785 8.93515C3.55785 8.9354 3.55785 8.93564 3.55785 8.93589C3.55785 8.93614 3.55785 8.93638 3.55785 8.93663C3.55785 8.93688 3.55785 8.93712 3.55785 8.93737C3.55785 8.93762 3.55785 8.93786 3.55785 8.93811C3.55785 8.93836 3.55785 8.9386 3.55785 8.93885C3.55785 8.9391 3.55785 8.93934 3.55785 8.93959C3.55785 8.93984 3.55785 8.94008 3.55785 8.94033C3.55785 8.94058 3.55785 8.94082 3.55785 8.94107C3.55785 8.94132 3.55785 8.94156 3.55785 8.94181C3.55785 8.94206 3.55785 8.9423 3.55785 8.94255C3.55785 8.9428 3.55785 8.94304 3.55785 8.94329C3.55785 8.94354 3.55785 8.94378 3.55785 8.94403C3.55785 8.94427 3.55785 8.94452 3.55785 8.94477C3.55785 8.94501 3.55785 8.94526 3.55785 8.94551C3.55785 8.94575 3.55785 8.946 3.55785 8.94625C3.55785 8.94649 3.55785 8.94674 3.55785 8.94699C3.55785 8.94723 3.55785 8.94748 3.55785 8.94773C3.55785 8.94797 3.55785 8.94822 3.55785 8.94847C3.55785 8.94871 3.55785 8.94896 3.55785 8.94921C3.55785 8.94945 3.55785 8.9497 3.55785 8.94995C3.55785 8.95019 3.55785 8.95044 3.55785 8.95069C3.55785 8.95093 3.55785 8.95118 3.55785 8.95143C3.55785 8.95167 3.55785 8.95192 3.55785 8.95216C3.55785 8.95241 3.55785 8.95266 3.55785 8.9529C3.55785 8.95315 3.55785 8.9534 3.55785 8.95364C3.55785 8.95389 3.55785 8.95414 3.55785 8.95438C3.55785 8.95463 3.55785 8.95488 3.55785 8.95512C3.55785 8.95537 3.55785 8.95562 3.55785 8.95586C3.55785 8.95611 3.55785 8.95636 3.55785 8.9566C3.55785 8.95685 3.55785 8.9571 3.55785 8.95734C3.55785 8.95759 3.55785 8.95784 3.55785 8.95808C3.55785 8.95833 3.55785 8.95858 3.55785 8.95882C3.55785 8.95907 3.55785 8.95932 3.55785 8.95956C3.55785 8.95981 3.55785 8.96005 3.55785 8.9603C3.55785 8.96055 3.55785 8.96079 3.55785 8.96104C3.55785 8.96129 3.55785 8.96153 3.55785 8.96178C3.55785 8.96203 3.55785 8.96227 3.55785 8.96252C3.55785 8.96277 3.55785 8.96301 3.55785 8.96326C3.55785 8.96351 3.55785 8.96375 3.55785 8.964C3.55785 8.96425 3.55785 8.96449 3.55785 8.96474C3.55785 8.96499 3.55785 8.96523 3.55785 8.96548C3.55785 8.96573 3.55785 8.96597 3.55785 8.96622C3.55785 8.96647 3.55785 8.96671 3.55785 8.96696C3.55785 8.9672 3.55785 8.96745 3.55785 8.9677C3.55785 8.96794 3.55785 8.96819 3.55785 8.96844C3.55785 8.96868 3.55785 8.96893 3.55785 8.96918C3.55785 8.96942 3.55785 8.96967 3.55785 8.96992C3.55785 8.97016 3.55785 8.97041 3.55785 8.97066C3.55785 8.9709 3.55785 8.97115 3.55785 8.9714C3.55785 8.97164 3.55785 8.97189 3.55785 8.97214C3.55785 8.97238 3.55785 8.97263 3.55785 8.97288C3.55785 8.97312 3.55785 8.97337 3.55785 8.97362C3.55785 8.97386 3.55785 8.97411 3.55785 8.97435C3.55785 8.9746 3.55785 8.97485 3.55785 8.97509C3.55785 8.97534 3.55785 8.97559 3.55785 8.97583C3.55785 8.97608 3.55785 8.97633 3.55785 8.97657C3.55785 8.97682 3.55785 8.97707 3.55785 8.97731C3.55785 8.97756 3.55785 8.97781 3.55785 8.97805C3.55785 8.9783 3.55785 8.97855 3.55785 8.97879C3.55785 8.97904 3.55785 8.97929 3.55785 8.97953C3.55785 8.97978 3.55785 8.98003 3.55785 8.98027C3.55785 8.98052 3.55785 8.98077 3.55785 8.98101C3.55785 8.98126 3.55785 8.9815 3.55785 8.98175C3.55785 8.982 3.55785 8.98224 3.55785 8.98249C3.55785 8.98274 3.55785 8.98298 3.55785 8.98323C3.55785 8.98348 3.55785 8.98372 3.55785 8.98397C3.55785 8.98422 3.55785 8.98446 3.55785 8.98471C3.55785 8.98496 3.55785 8.9852 3.55785 8.98545C3.55785 8.9857 3.55785 8.98594 3.55785 8.98619C3.55785 8.98644 3.55785 8.98668 3.55785 8.98693C3.55785 8.98718 3.55785 8.98742 3.55785 8.98767C3.55785 8.98792 3.55785 8.98816 3.55785 8.98841C3.55785 8.98865 3.55785 8.9889 3.55785 8.98915C3.55785 8.98939 3.55785 8.98964 3.55785 8.98989C3.55785 8.99013 3.55785 8.99038 3.55785 8.99063C3.55785 8.99087 3.55785 8.99112 3.55785 8.99137C3.55785 8.99161 3.55785 8.99186 3.55785 8.99211C3.55785 8.99235 3.55785 8.9926 3.55785 8.99285C3.55785 8.99309 3.55785 8.99334 3.55785 8.99359C3.55785 8.99383 3.55785 8.99408 3.55785 8.99433C3.55785 8.99457 3.55785 8.99482 3.55785 8.99506C3.55785 8.99531 3.55785 8.99556 3.55785 8.9958C3.55785 8.99605 3.55785 8.9963 3.55785 8.99654C3.55785 8.99679 3.55785 8.99704 3.55785 8.99728C3.55785 8.99753 3.55785 8.99778 3.55785 8.99802C3.55785 8.99827 3.55785 8.99852 3.55785 8.99876C3.55785 8.99901 3.55785 8.99926 3.55785 8.9995C3.55785 8.99975 3.55785 9 3.55785 9.00024C3.55785 9.00049 3.55785 9.00074 3.55785 9.00098C3.55785 9.00123 3.55785 9.00147 3.55785 9.00172C3.55785 9.00197 3.55785 9.00221 3.55785 9.00246C3.55785 9.00271 3.55785 9.00295 3.55785 9.0032C3.55785 9.00345 3.55785 9.00369 3.55785 9.00394C3.55785 9.00419 3.55785 9.00443 3.55785 9.00468C3.55785 9.00493 3.55785 9.00517 3.55785 9.00542C3.55785 9.00567 3.55785 9.00591 3.55785 9.00616C3.55785 9.00641 3.55785 9.00665 3.55785 9.0069C3.55785 9.00715 3.55785 9.00739 3.55785 9.00764C3.55785 9.00788 3.55785 9.00813 3.55785 9.00838C3.55785 9.00862 3.55785 9.00887 3.55785 9.00912C3.55785 9.00936 3.55785 9.00961 3.55785 9.00986C3.55785 9.0101 3.55785 9.01035 3.55785 9.0106C3.55785 9.01084 3.55785 9.01109 3.55785 9.01134C3.55785 9.01158 3.55785 9.01183 3.55785 9.01208C3.55785 9.01232 3.55785 9.01257 3.55785 9.01282C3.55785 9.01306 3.55785 9.01331 3.55785 9.01356C3.55785 9.0138 3.55785 9.01405 3.55785 9.01429C3.55785 9.01454 3.55785 9.01479 3.55785 9.01503C3.55785 9.01528 3.55785 9.01553 3.55785 9.01577C3.55785 9.01602 3.55785 9.01627 3.55785 9.01651C3.55785 9.01676 3.55785 9.01701 3.55785 9.01725C3.55785 9.0175 3.55785 9.01775 3.55785 9.01799C3.55785 9.01824 3.55785 9.01849 3.55785 9.01873C3.55785 9.01898 3.55785 9.01923 3.55785 9.01947C3.55785 9.01972 3.55785 9.01996 3.55785 9.02021C3.55785 9.02046 3.55785 9.0207 3.55785 9.02095C3.55785 9.0212 3.55785 9.02144 3.55785 9.02169C3.55785 9.02194 3.55785 9.02218 3.55785 9.02243C3.55785 9.02268 3.55785 9.02292 3.55785 9.02317C3.55785 9.02342 3.55785 9.02366 3.55785 9.02391C3.55785 9.02416 3.55785 9.0244 3.55785 9.02465C3.55785 9.0249 3.55785 9.02514 3.55785 9.02539C3.55785 9.02563 3.55785 9.02588 3.55785 9.02613C3.55785 9.02637 3.55785 9.02662 3.55785 9.02687C3.55785 9.02711 3.55785 9.02736 3.55785 9.02761C3.55785 9.02785 3.55785 9.0281 3.55785 9.02835C3.55785 9.02859 3.55785 9.02884 3.55785 9.02909C3.55785 9.02933 3.55785 9.02958 3.55785 9.02983C3.55785 9.03007 3.55785 9.03032 3.55785 9.03057C3.55785 9.03081 3.55785 9.03106 3.55785 9.0313C3.55785 9.03155 3.55785 9.0318 3.55785 9.03204C3.55785 9.03229 3.55785 9.03254 3.55785 9.03278C3.55785 9.03303 3.55785 9.03328 3.55785 9.03352C3.55785 9.03377 3.55785 9.03402 3.55785 9.03426C3.55785 9.03451 3.55785 9.03476 3.55785 9.035C3.55785 9.03525 3.55785 9.0355 3.55785 9.03574C3.55785 9.03599 3.55785 9.03624 3.55785 9.03648C3.55785 9.03673 3.55785 9.03697 3.55785 9.03722C3.55785 9.03747 3.55785 9.03771 3.55785 9.03796C3.55785 9.03821 3.55785 9.03845 3.55785 9.0387C3.55785 9.03895 3.55785 9.03919 3.55785 9.03944C3.55785 9.03969 3.55785 9.03993 3.55785 9.04018C3.55785 9.04043 3.55785 9.04067 3.55785 9.04092C3.55785 9.04117 3.55785 9.04141 3.55785 9.04166C3.55785 9.04191 3.55785 9.04215 3.55785 9.0424C3.55785 9.04264 3.55785 9.04289 3.55785 9.04314C3.55785 9.04338 3.55785 9.04363 3.55785 9.04388C3.55785 9.04412 3.55785 9.04437 3.55785 9.04462C3.55785 9.04486 3.55785 9.04511 3.55785 9.04536C3.55785 9.0456 3.55785 9.04585 3.55785 9.0461C3.55785 9.04634 3.55785 9.04659 3.55785 9.04684C3.55785 9.04708 3.55785 9.04733 3.55785 9.04757C3.55785 9.04782 3.55785 9.04807 3.55785 9.04831C3.55785 9.04856 3.55785 9.04881 3.55785 9.04905C3.55785 9.0493 3.55785 9.04955 3.55785 9.04979C3.55785 9.05004 3.55785 9.05029 3.55785 9.05053C3.55785 9.05078 3.55785 9.05103 3.55785 9.05127C3.55785 9.05152 3.55785 9.05177 3.55785 9.05201C3.55785 9.05226 3.55785 9.05251 3.55785 9.05275C3.55785 9.053 3.55785 9.05324 3.55785 9.05349C3.55785 9.05374 3.55785 9.05398 3.55785 9.05423C3.55785 9.05448 3.55785 9.05472 3.55785 9.05497C3.55785 9.05522 3.55785 9.05546 3.55785 9.05571C3.55785 9.05596 3.55785 9.0562 3.55785 9.05645C3.55785 9.0567 3.55785 9.05694 3.55785 9.05719C3.55785 9.05744 3.55785 9.05768 3.55785 9.05793C3.55785 9.05817 3.55785 9.05842 3.55785 9.05867C3.55785 9.05891 3.55785 9.05916 3.55785 9.05941C3.55785 9.05965 3.55785 9.0599 3.55785 9.06015C3.55785 9.06039 3.55785 9.06064 3.55785 9.06089C3.55785 9.06113 3.55785 9.06138 3.55785 9.06163C3.55785 9.06187 3.55785 9.06212 3.55785 9.06237C3.55785 9.06261 3.55785 9.06286 3.55785 9.0631C3.55785 9.06335 3.55785 9.0636 3.55785 9.06384C3.55785 9.06409 3.55785 9.06434 3.55785 9.06458C3.55785 9.06483 3.55785 9.06508 3.55785 9.06532C3.55785 9.06557 3.55785 9.06582 3.55785 9.06606C3.55785 9.06631 3.55785 9.06656 3.55785 9.0668C3.55785 9.06705 3.55785 9.0673 3.55785 9.06754C3.55785 9.06779 3.55785 9.06803 3.55785 9.06828C3.55785 9.06853 3.55785 9.06877 3.55785 9.06902C3.55785 9.06927 3.55785 9.06951 3.55785 9.06976C3.55785 9.07001 3.55785 9.07025 3.55785 9.0705C3.55785 9.07075 3.55785 9.07099 3.55785 9.07124C3.55785 9.07149 3.55785 9.07173 3.55785 9.07198C3.55785 9.07223 3.55785 9.07247 3.55785 9.07272C3.55785 9.07296 3.55785 9.07321 3.55785 9.07346C3.55785 9.0737 3.55785 9.07395 3.55785 9.0742C3.55785 9.07444 3.55785 9.07469 3.55785 9.07494C3.55785 9.07518 3.55785 9.07543 3.55785 9.07568C3.55785 9.07592 3.55785 9.07617 3.55785 9.07642C3.55785 9.07666 3.55785 9.07691 3.55785 9.07715C3.55785 9.0774 3.55785 9.07765 3.55785 9.07789C3.55785 9.07814 3.55785 9.07839 3.55785 9.07863C3.55785 9.07888 3.55785 9.07913 3.55785 9.07937C3.55785 9.07962 3.55785 9.07987 3.55785 9.08011C3.55785 9.08036 3.55785 9.08061 3.55785 9.08085C3.55785 9.0811 3.55785 9.08135 3.55785 9.08159C3.55785 9.08184 3.55785 9.08208 3.55785 9.08233C3.55785 9.08258 3.55785 9.08282 3.55785 9.08307C3.55785 9.08332 3.55785 9.08356 3.55785 9.08381C3.55785 9.08406 3.55785 9.0843 3.55785 9.08455C3.55785 9.0848 3.55785 9.08504 3.55785 9.08529C3.55785 9.08554 3.55785 9.08578 3.55785 9.08603C3.55785 9.08627 3.55785 9.08652 3.55785 9.08677C3.55785 9.08701 3.55785 9.08726 3.55785 9.08751C3.55785 9.08775 3.55785 9.088 3.55785 9.08825C3.55785 9.08849 3.55785 9.08874 3.55785 9.08899C3.55785 9.08923 3.55785 9.08948 3.55785 9.08973C3.55785 9.08997 3.55785 9.09022 3.55785 9.09046C3.55785 9.09071 3.55785 9.09096 3.55785 9.0912C3.55785 9.09145 3.55785 9.0917 3.55785 9.09194C3.55785 9.09219 3.55785 9.09244 3.55785 9.09268C3.55785 9.09293 3.55785 9.09318 3.55785 9.09342C3.55785 9.09367 3.55785 9.09392 3.55785 9.09416C3.55785 9.09441 3.55785 9.09466 3.55785 9.0949C3.55785 9.09515 3.55785 9.09539 3.55785 9.09564C3.55785 9.09589 3.55785 9.09613 3.55785 9.09638C3.55785 9.09663 3.55785 9.09687 3.55785 9.09712C3.55785 9.09737 3.55785 9.09761 3.55785 9.09786C3.55785 9.09811 3.55785 9.09835 3.55785 9.0986C3.55785 9.09885 3.55785 9.09909 3.55785 9.09934C3.55785 9.09958 3.55785 9.09983 3.55785 9.10008C3.55785 9.10032 3.55785 9.10057 3.55785 9.10082C3.55785 9.10106 3.55785 9.10131 3.55785 9.10156C3.55785 9.1018 3.55785 9.10205 3.55785 9.1023C3.55785 9.10254 3.55785 9.10279 3.55785 9.10303C3.55785 9.10328 3.55785 9.10353 3.55785 9.10377C3.55785 9.10402 3.55785 9.10427 3.55785 9.10451C3.55785 9.10476 3.55785 9.10501 3.55785 9.10525C3.55785 9.1055 3.55785 9.10575 3.55785 9.10599C3.55785 9.10624 3.55785 9.10649 3.55785 9.10673C3.55785 9.10698 3.55785 9.10722 3.55785 9.10747C3.55785 9.10772 3.55785 9.10796 3.55785 9.10821C3.55785 9.10846 3.55785 9.1087 3.55785 9.10895C3.55785 9.1092 3.55785 9.10944 3.55785 9.10969C3.55785 9.10994 3.55785 9.11018 3.55785 9.11043C3.55785 9.11068 3.55785 9.11092 3.55785 9.11117C3.55785 9.11141 3.55785 9.11166 3.55785 9.11191C3.55785 9.11215 3.55785 9.1124 3.55785 9.11265C3.55785 9.11289 3.55785 9.11314 3.55785 9.11339C3.55785 9.11363 3.55785 9.11388 3.55785 9.11413C3.55785 9.11437 3.55785 9.11462 3.55785 9.11487C3.55785 9.11511 3.55785 9.11536 3.55785 9.1156C3.55785 9.11585 3.55785 9.1161 3.55785 9.11634C3.55785 9.11659 3.55785 9.11684 3.55785 9.11708C3.55785 9.11733 3.55785 9.11758 3.55785 9.11782C3.55785 9.11807 3.55785 9.11832 3.55785 9.11856C3.55785 9.11881 3.55785 9.11905 3.55785 9.1193C3.55785 9.11955 3.55785 9.11979 3.55785 9.12004C3.55785 9.12029 3.55785 9.12053 3.55785 9.12078C3.55785 9.12103 3.55785 9.12127 3.55785 9.12152C3.55785 9.12177 3.55785 9.12201 3.55785 9.12226C3.55785 9.12251 3.55785 9.12275 3.55785 9.123C3.55785 9.12324 3.55785 9.12349 3.55785 9.12374C3.55785 9.12398 3.55785 9.12423 3.55785 9.12448C3.55785 9.12472 3.55785 9.12497 3.55785 9.12522C3.55785 9.12546 3.55785 9.12571 3.55785 9.12596C3.55785 9.1262 3.55785 9.12645 3.55785 9.12669C3.55785 9.12694 3.55785 9.12719 3.55785 9.12743C3.55785 9.12768 3.55785 9.12793 3.55785 9.12817C3.55785 9.12842 3.55785 9.12867 3.55785 9.12891C3.55785 9.12916 3.55785 9.12941 3.55785 9.12965C3.55785 9.1299 3.55785 9.13014 3.55785 9.13039C3.55785 9.13064 3.55785 9.13088 3.55785 9.13113C3.55785 9.13138 3.55785 9.13162 3.55785 9.13187C3.55785 9.13212 3.55785 9.13236 3.55785 9.13261C3.55785 9.13286 3.55785 9.1331 3.55785 9.13335C3.55785 9.1336 3.55785 9.13384 3.55785 9.13409C3.55785 9.13433 3.55785 9.13458 3.55785 9.13483C3.55785 9.13507 3.55785 9.13532 3.55785 9.13557C3.55785 9.13581 3.55785 9.13606 3.55785 9.13631C3.55785 9.13655 3.55785 9.1368 3.55785 9.13705C3.55785 9.13729 3.55785 9.13754 3.55785 9.13778C3.55785 9.13803 3.55785 9.13828 3.55785 9.13852C3.55785 9.13877 3.55785 9.13902 3.55785 9.13926C3.55785 9.13951 3.55785 9.13976 3.55785 9.14C3.55785 9.14025 3.55785 9.1405 3.55785 9.14074C3.55785 9.14099 3.55785 9.14123 3.55785 9.14148C3.55785 9.14173 3.55785 9.14197 3.55785 9.14222C3.55785 9.14247 3.55785 9.14271 3.55785 9.14296C3.55785 9.14321 3.55785 9.14345 3.55785 9.1437C3.55785 9.14395 3.55785 9.14419 3.55785 9.14444C3.55785 9.14468 3.55785 9.14493 3.55785 9.14518C3.55785 9.14542 3.55785 9.14567 3.55785 9.14592C3.55785 9.14616 3.55785 9.14641 3.55785 9.14666C3.55785 9.1469 3.55785 9.14715 3.55785 9.1474C3.55785 9.14764 3.55785 9.14789 3.55785 9.14813C3.55785 9.14838 3.55785 9.14863 3.55785 9.14887C3.55785 9.14912 3.55785 9.14937 3.55785 9.14961C3.55785 9.14986 3.55785 9.15011 3.55785 9.15035C3.55785 9.1506 3.55785 9.15085 3.55785 9.15109C3.55785 9.15134 3.55785 9.15158 3.55785 9.15183C3.55785 9.15208 3.55785 9.15232 3.55785 9.15257C3.55785 9.15282 3.55785 9.15306 3.55785 9.15331C3.55785 9.15356 3.55785 9.1538 3.55785 9.15405C3.55785 9.1543 3.55785 9.15454 3.55785 9.15479C3.55785 9.15503 3.55785 9.15528 3.55785 9.15553C3.55785 9.15577 3.55785 9.15602 3.55785 9.15627C3.55785 9.15651 3.55785 9.15676 3.55785 9.15701C3.55785 9.15725 3.55785 9.1575 3.55785 9.15774C3.55785 9.15799 3.55785 9.15824 3.55785 9.15848C3.55785 9.15873 3.55785 9.15898 3.55785 9.15922C3.55785 9.15947 3.55785 9.15972 3.55785 9.15996C3.55785 9.16021 3.55785 9.16046 3.55785 9.1607C3.55785 9.16095 3.55785 9.16119 3.55785 9.16144C3.55785 9.16169 3.55785 9.16193 3.55785 9.16218C3.55785 9.16243 3.55785 9.16267 3.55785 9.16292C3.55785 9.16317 3.55785 9.16341 3.55785 9.16366C3.55785 9.16391 3.55785 9.16415 3.55785 9.1644C3.55785 9.16464 3.55785 9.16489 3.55785 9.16514C3.55785 9.16538 3.55785 9.16563 3.55785 9.16588C3.55785 9.16612 3.55785 9.16637 3.55785 9.16662C3.55785 9.16686 3.55785 9.16711 3.55785 9.16735C3.55785 9.1676 3.55785 9.16785 3.55785 9.16809C3.55785 9.16834 3.55785 9.16859 3.55785 9.16883C3.55785 9.16908 3.55785 9.16933 3.55785 9.16957C3.55785 9.16982 3.55785 9.17007 3.55785 9.17031C3.55785 9.17056 3.55785 9.1708 3.55785 9.17105C3.55785 9.1713 3.55785 9.17154 3.55785 9.17179C3.55785 9.17204 3.55785 9.17228 3.55785 9.17253C3.55785 9.17278 3.55785 9.17302 3.55785 9.17327C3.55785 9.17351 3.55785 9.17376 3.55785 9.17401C3.55785 9.17425 3.55785 9.1745 3.55785 9.17475C3.55785 9.17499 3.55785 9.17524 3.55785 9.17549C3.55785 9.17573 3.55785 9.17598 3.55785 9.17623C3.55785 9.17647 3.55785 9.17672 3.55785 9.17696C3.55785 9.17721 3.55785 9.17746 3.55785 9.1777C3.55785 9.17795 3.55785 9.1782 3.55785 9.17844C3.55785 9.17869 3.55785 9.17894 3.55785 9.17918C3.55785 9.17943 3.55785 9.17967 3.55785 9.17992C3.55785 9.18017 3.55785 9.18041 3.55785 9.18066C3.55785 9.18091 3.55785 9.18115 3.55785 9.1814C3.55785 9.18165 3.55785 9.18189 3.55785 9.18214C3.55785 9.18239 3.55785 9.18263 3.55785 9.18288C3.55785 9.18312 3.55785 9.18337 3.55785 9.18362C3.55785 9.18386 3.55785 9.18411 3.55785 9.18436C3.55785 9.1846 3.55785 9.18485 3.55785 9.1851C3.55785 9.18534 3.55785 9.18559 3.55785 9.18583C3.55785 9.18608 3.55785 9.18633 3.55785 9.18657C3.55785 9.18682 3.55785 9.18707 3.55785 9.18731C3.55785 9.18756 3.55785 9.18781 3.55785 9.18805C3.55785 9.1883 3.55785 9.18854 3.55785 9.18879C3.55785 9.18904 3.55785 9.18928 3.55785 9.18953C3.55785 9.18978 3.55785 9.19002 3.55785 9.19027C3.55785 9.19052 3.55785 9.19076 3.55785 9.19101C3.55785 9.19125 3.55785 9.1915 3.55785 9.19175C3.55785 9.19199 3.55785 9.19224 3.55785 9.19249C3.55785 9.19273 3.55785 9.19298 3.55785 9.19323C3.55785 9.19347 3.55785 9.19372 3.55785 9.19397C3.55785 9.19421 3.55785 9.19446 3.55785 9.1947C3.55785 9.19495 3.55785 9.1952 3.55785 9.19544C3.55785 9.19569 3.55785 9.19594 3.55785 9.19618C3.55785 9.19643 3.55785 9.19668 3.55785 9.19692C3.55785 9.19717 3.55785 9.19741 3.55785 9.19766C3.55785 9.19791 3.55785 9.19815 3.55785 9.1984C3.55785 9.19865 3.55785 9.19889 3.55785 9.19914C3.55785 9.19939 3.55785 9.19963 3.55785 9.19988C3.55785 9.20012 3.55785 9.20037 3.55785 9.20062H5.55785C5.55785 9.20037 5.55785 9.20012 5.55785 9.19988C5.55785 9.19963 5.55785 9.19939 5.55785 9.19914C5.55785 9.19889 5.55785 9.19865 5.55785 9.1984C5.55785 9.19815 5.55785 9.19791 5.55785 9.19766C5.55785 9.19741 5.55785 9.19717 5.55785 9.19692C5.55785 9.19668 5.55785 9.19643 5.55785 9.19618C5.55785 9.19594 5.55785 9.19569 5.55785 9.19544C5.55785 9.1952 5.55785 9.19495 5.55785 9.1947C5.55785 9.19446 5.55785 9.19421 5.55785 9.19397C5.55785 9.19372 5.55785 9.19347 5.55785 9.19323C5.55785 9.19298 5.55785 9.19273 5.55785 9.19249C5.55785 9.19224 5.55785 9.19199 5.55785 9.19175C5.55785 9.1915 5.55785 9.19125 5.55785 9.19101C5.55785 9.19076 5.55785 9.19052 5.55785 9.19027C5.55785 9.19002 5.55785 9.18978 5.55785 9.18953C5.55785 9.18928 5.55785 9.18904 5.55785 9.18879C5.55785 9.18854 5.55785 9.1883 5.55785 9.18805C5.55785 9.18781 5.55785 9.18756 5.55785 9.18731C5.55785 9.18707 5.55785 9.18682 5.55785 9.18657C5.55785 9.18633 5.55785 9.18608 5.55785 9.18583C5.55785 9.18559 5.55785 9.18534 5.55785 9.1851C5.55785 9.18485 5.55785 9.1846 5.55785 9.18436C5.55785 9.18411 5.55785 9.18386 5.55785 9.18362C5.55785 9.18337 5.55785 9.18312 5.55785 9.18288C5.55785 9.18263 5.55785 9.18239 5.55785 9.18214C5.55785 9.18189 5.55785 9.18165 5.55785 9.1814C5.55785 9.18115 5.55785 9.18091 5.55785 9.18066C5.55785 9.18041 5.55785 9.18017 5.55785 9.17992C5.55785 9.17967 5.55785 9.17943 5.55785 9.17918C5.55785 9.17894 5.55785 9.17869 5.55785 9.17844C5.55785 9.1782 5.55785 9.17795 5.55785 9.1777C5.55785 9.17746 5.55785 9.17721 5.55785 9.17696C5.55785 9.17672 5.55785 9.17647 5.55785 9.17623C5.55785 9.17598 5.55785 9.17573 5.55785 9.17549C5.55785 9.17524 5.55785 9.17499 5.55785 9.17475C5.55785 9.1745 5.55785 9.17425 5.55785 9.17401C5.55785 9.17376 5.55785 9.17351 5.55785 9.17327C5.55785 9.17302 5.55785 9.17278 5.55785 9.17253C5.55785 9.17228 5.55785 9.17204 5.55785 9.17179C5.55785 9.17154 5.55785 9.1713 5.55785 9.17105C5.55785 9.1708 5.55785 9.17056 5.55785 9.17031C5.55785 9.17007 5.55785 9.16982 5.55785 9.16957C5.55785 9.16933 5.55785 9.16908 5.55785 9.16883C5.55785 9.16859 5.55785 9.16834 5.55785 9.16809C5.55785 9.16785 5.55785 9.1676 5.55785 9.16735C5.55785 9.16711 5.55785 9.16686 5.55785 9.16662C5.55785 9.16637 5.55785 9.16612 5.55785 9.16588C5.55785 9.16563 5.55785 9.16538 5.55785 9.16514C5.55785 9.16489 5.55785 9.16464 5.55785 9.1644C5.55785 9.16415 5.55785 9.16391 5.55785 9.16366C5.55785 9.16341 5.55785 9.16317 5.55785 9.16292C5.55785 9.16267 5.55785 9.16243 5.55785 9.16218C5.55785 9.16193 5.55785 9.16169 5.55785 9.16144C5.55785 9.16119 5.55785 9.16095 5.55785 9.1607C5.55785 9.16046 5.55785 9.16021 5.55785 9.15996C5.55785 9.15972 5.55785 9.15947 5.55785 9.15922C5.55785 9.15898 5.55785 9.15873 5.55785 9.15848C5.55785 9.15824 5.55785 9.15799 5.55785 9.15774C5.55785 9.1575 5.55785 9.15725 5.55785 9.15701C5.55785 9.15676 5.55785 9.15651 5.55785 9.15627C5.55785 9.15602 5.55785 9.15577 5.55785 9.15553C5.55785 9.15528 5.55785 9.15503 5.55785 9.15479C5.55785 9.15454 5.55785 9.1543 5.55785 9.15405C5.55785 9.1538 5.55785 9.15356 5.55785 9.15331C5.55785 9.15306 5.55785 9.15282 5.55785 9.15257C5.55785 9.15232 5.55785 9.15208 5.55785 9.15183C5.55785 9.15158 5.55785 9.15134 5.55785 9.15109C5.55785 9.15085 5.55785 9.1506 5.55785 9.15035C5.55785 9.15011 5.55785 9.14986 5.55785 9.14961C5.55785 9.14937 5.55785 9.14912 5.55785 9.14887C5.55785 9.14863 5.55785 9.14838 5.55785 9.14813C5.55785 9.14789 5.55785 9.14764 5.55785 9.1474C5.55785 9.14715 5.55785 9.1469 5.55785 9.14666C5.55785 9.14641 5.55785 9.14616 5.55785 9.14592C5.55785 9.14567 5.55785 9.14542 5.55785 9.14518C5.55785 9.14493 5.55785 9.14468 5.55785 9.14444C5.55785 9.14419 5.55785 9.14395 5.55785 9.1437C5.55785 9.14345 5.55785 9.14321 5.55785 9.14296C5.55785 9.14271 5.55785 9.14247 5.55785 9.14222C5.55785 9.14197 5.55785 9.14173 5.55785 9.14148C5.55785 9.14123 5.55785 9.14099 5.55785 9.14074C5.55785 9.1405 5.55785 9.14025 5.55785 9.14C5.55785 9.13976 5.55785 9.13951 5.55785 9.13926C5.55785 9.13902 5.55785 9.13877 5.55785 9.13852C5.55785 9.13828 5.55785 9.13803 5.55785 9.13778C5.55785 9.13754 5.55785 9.13729 5.55785 9.13705C5.55785 9.1368 5.55785 9.13655 5.55785 9.13631C5.55785 9.13606 5.55785 9.13581 5.55785 9.13557C5.55785 9.13532 5.55785 9.13507 5.55785 9.13483C5.55785 9.13458 5.55785 9.13433 5.55785 9.13409C5.55785 9.13384 5.55785 9.1336 5.55785 9.13335C5.55785 9.1331 5.55785 9.13286 5.55785 9.13261C5.55785 9.13236 5.55785 9.13212 5.55785 9.13187C5.55785 9.13162 5.55785 9.13138 5.55785 9.13113C5.55785 9.13088 5.55785 9.13064 5.55785 9.13039C5.55785 9.13014 5.55785 9.1299 5.55785 9.12965C5.55785 9.12941 5.55785 9.12916 5.55785 9.12891C5.55785 9.12867 5.55785 9.12842 5.55785 9.12817C5.55785 9.12793 5.55785 9.12768 5.55785 9.12743C5.55785 9.12719 5.55785 9.12694 5.55785 9.12669C5.55785 9.12645 5.55785 9.1262 5.55785 9.12596C5.55785 9.12571 5.55785 9.12546 5.55785 9.12522C5.55785 9.12497 5.55785 9.12472 5.55785 9.12448C5.55785 9.12423 5.55785 9.12398 5.55785 9.12374C5.55785 9.12349 5.55785 9.12324 5.55785 9.123C5.55785 9.12275 5.55785 9.12251 5.55785 9.12226C5.55785 9.12201 5.55785 9.12177 5.55785 9.12152C5.55785 9.12127 5.55785 9.12103 5.55785 9.12078C5.55785 9.12053 5.55785 9.12029 5.55785 9.12004C5.55785 9.11979 5.55785 9.11955 5.55785 9.1193C5.55785 9.11905 5.55785 9.11881 5.55785 9.11856C5.55785 9.11832 5.55785 9.11807 5.55785 9.11782C5.55785 9.11758 5.55785 9.11733 5.55785 9.11708C5.55785 9.11684 5.55785 9.11659 5.55785 9.11634C5.55785 9.1161 5.55785 9.11585 5.55785 9.1156C5.55785 9.11536 5.55785 9.11511 5.55785 9.11487C5.55785 9.11462 5.55785 9.11437 5.55785 9.11413C5.55785 9.11388 5.55785 9.11363 5.55785 9.11339C5.55785 9.11314 5.55785 9.11289 5.55785 9.11265C5.55785 9.1124 5.55785 9.11215 5.55785 9.11191C5.55785 9.11166 5.55785 9.11141 5.55785 9.11117C5.55785 9.11092 5.55785 9.11068 5.55785 9.11043C5.55785 9.11018 5.55785 9.10994 5.55785 9.10969C5.55785 9.10944 5.55785 9.1092 5.55785 9.10895C5.55785 9.1087 5.55785 9.10846 5.55785 9.10821C5.55785 9.10796 5.55785 9.10772 5.55785 9.10747C5.55785 9.10722 5.55785 9.10698 5.55785 9.10673C5.55785 9.10649 5.55785 9.10624 5.55785 9.10599C5.55785 9.10575 5.55785 9.1055 5.55785 9.10525C5.55785 9.10501 5.55785 9.10476 5.55785 9.10451C5.55785 9.10427 5.55785 9.10402 5.55785 9.10377C5.55785 9.10353 5.55785 9.10328 5.55785 9.10303C5.55785 9.10279 5.55785 9.10254 5.55785 9.1023C5.55785 9.10205 5.55785 9.1018 5.55785 9.10156C5.55785 9.10131 5.55785 9.10106 5.55785 9.10082C5.55785 9.10057 5.55785 9.10032 5.55785 9.10008C5.55785 9.09983 5.55785 9.09958 5.55785 9.09934C5.55785 9.09909 5.55785 9.09885 5.55785 9.0986C5.55785 9.09835 5.55785 9.09811 5.55785 9.09786C5.55785 9.09761 5.55785 9.09737 5.55785 9.09712C5.55785 9.09687 5.55785 9.09663 5.55785 9.09638C5.55785 9.09613 5.55785 9.09589 5.55785 9.09564C5.55785 9.09539 5.55785 9.09515 5.55785 9.0949C5.55785 9.09466 5.55785 9.09441 5.55785 9.09416C5.55785 9.09392 5.55785 9.09367 5.55785 9.09342C5.55785 9.09318 5.55785 9.09293 5.55785 9.09268C5.55785 9.09244 5.55785 9.09219 5.55785 9.09194C5.55785 9.0917 5.55785 9.09145 5.55785 9.0912C5.55785 9.09096 5.55785 9.09071 5.55785 9.09046C5.55785 9.09022 5.55785 9.08997 5.55785 9.08973C5.55785 9.08948 5.55785 9.08923 5.55785 9.08899C5.55785 9.08874 5.55785 9.08849 5.55785 9.08825C5.55785 9.088 5.55785 9.08775 5.55785 9.08751C5.55785 9.08726 5.55785 9.08701 5.55785 9.08677C5.55785 9.08652 5.55785 9.08627 5.55785 9.08603C5.55785 9.08578 5.55785 9.08554 5.55785 9.08529C5.55785 9.08504 5.55785 9.0848 5.55785 9.08455C5.55785 9.0843 5.55785 9.08406 5.55785 9.08381C5.55785 9.08356 5.55785 9.08332 5.55785 9.08307C5.55785 9.08282 5.55785 9.08258 5.55785 9.08233C5.55785 9.08208 5.55785 9.08184 5.55785 9.08159C5.55785 9.08135 5.55785 9.0811 5.55785 9.08085C5.55785 9.08061 5.55785 9.08036 5.55785 9.08011C5.55785 9.07987 5.55785 9.07962 5.55785 9.07937C5.55785 9.07913 5.55785 9.07888 5.55785 9.07863C5.55785 9.07839 5.55785 9.07814 5.55785 9.07789C5.55785 9.07765 5.55785 9.0774 5.55785 9.07715C5.55785 9.07691 5.55785 9.07666 5.55785 9.07642C5.55785 9.07617 5.55785 9.07592 5.55785 9.07568C5.55785 9.07543 5.55785 9.07518 5.55785 9.07494C5.55785 9.07469 5.55785 9.07444 5.55785 9.0742C5.55785 9.07395 5.55785 9.0737 5.55785 9.07346C5.55785 9.07321 5.55785 9.07296 5.55785 9.07272C5.55785 9.07247 5.55785 9.07223 5.55785 9.07198C5.55785 9.07173 5.55785 9.07149 5.55785 9.07124C5.55785 9.07099 5.55785 9.07075 5.55785 9.0705C5.55785 9.07025 5.55785 9.07001 5.55785 9.06976C5.55785 9.06951 5.55785 9.06927 5.55785 9.06902C5.55785 9.06877 5.55785 9.06853 5.55785 9.06828C5.55785 9.06803 5.55785 9.06779 5.55785 9.06754C5.55785 9.0673 5.55785 9.06705 5.55785 9.0668C5.55785 9.06656 5.55785 9.06631 5.55785 9.06606C5.55785 9.06582 5.55785 9.06557 5.55785 9.06532C5.55785 9.06508 5.55785 9.06483 5.55785 9.06458C5.55785 9.06434 5.55785 9.06409 5.55785 9.06384C5.55785 9.0636 5.55785 9.06335 5.55785 9.0631C5.55785 9.06286 5.55785 9.06261 5.55785 9.06237C5.55785 9.06212 5.55785 9.06187 5.55785 9.06163C5.55785 9.06138 5.55785 9.06113 5.55785 9.06089C5.55785 9.06064 5.55785 9.06039 5.55785 9.06015C5.55785 9.0599 5.55785 9.05965 5.55785 9.05941C5.55785 9.05916 5.55785 9.05891 5.55785 9.05867C5.55785 9.05842 5.55785 9.05817 5.55785 9.05793C5.55785 9.05768 5.55785 9.05744 5.55785 9.05719C5.55785 9.05694 5.55785 9.0567 5.55785 9.05645C5.55785 9.0562 5.55785 9.05596 5.55785 9.05571C5.55785 9.05546 5.55785 9.05522 5.55785 9.05497C5.55785 9.05472 5.55785 9.05448 5.55785 9.05423C5.55785 9.05398 5.55785 9.05374 5.55785 9.05349C5.55785 9.05324 5.55785 9.053 5.55785 9.05275C5.55785 9.05251 5.55785 9.05226 5.55785 9.05201C5.55785 9.05177 5.55785 9.05152 5.55785 9.05127C5.55785 9.05103 5.55785 9.05078 5.55785 9.05053C5.55785 9.05029 5.55785 9.05004 5.55785 9.04979C5.55785 9.04955 5.55785 9.0493 5.55785 9.04905C5.55785 9.04881 5.55785 9.04856 5.55785 9.04831C5.55785 9.04807 5.55785 9.04782 5.55785 9.04757C5.55785 9.04733 5.55785 9.04708 5.55785 9.04684C5.55785 9.04659 5.55785 9.04634 5.55785 9.0461C5.55785 9.04585 5.55785 9.0456 5.55785 9.04536C5.55785 9.04511 5.55785 9.04486 5.55785 9.04462C5.55785 9.04437 5.55785 9.04412 5.55785 9.04388C5.55785 9.04363 5.55785 9.04338 5.55785 9.04314C5.55785 9.04289 5.55785 9.04264 5.55785 9.0424C5.55785 9.04215 5.55785 9.04191 5.55785 9.04166C5.55785 9.04141 5.55785 9.04117 5.55785 9.04092C5.55785 9.04067 5.55785 9.04043 5.55785 9.04018C5.55785 9.03993 5.55785 9.03969 5.55785 9.03944C5.55785 9.03919 5.55785 9.03895 5.55785 9.0387C5.55785 9.03845 5.55785 9.03821 5.55785 9.03796C5.55785 9.03771 5.55785 9.03747 5.55785 9.03722C5.55785 9.03697 5.55785 9.03673 5.55785 9.03648C5.55785 9.03624 5.55785 9.03599 5.55785 9.03574C5.55785 9.0355 5.55785 9.03525 5.55785 9.035C5.55785 9.03476 5.55785 9.03451 5.55785 9.03426C5.55785 9.03402 5.55785 9.03377 5.55785 9.03352C5.55785 9.03328 5.55785 9.03303 5.55785 9.03278C5.55785 9.03254 5.55785 9.03229 5.55785 9.03204C5.55785 9.0318 5.55785 9.03155 5.55785 9.0313C5.55785 9.03106 5.55785 9.03081 5.55785 9.03057C5.55785 9.03032 5.55785 9.03007 5.55785 9.02983C5.55785 9.02958 5.55785 9.02933 5.55785 9.02909C5.55785 9.02884 5.55785 9.02859 5.55785 9.02835C5.55785 9.0281 5.55785 9.02785 5.55785 9.02761C5.55785 9.02736 5.55785 9.02711 5.55785 9.02687C5.55785 9.02662 5.55785 9.02637 5.55785 9.02613C5.55785 9.02588 5.55785 9.02563 5.55785 9.02539C5.55785 9.02514 5.55785 9.0249 5.55785 9.02465C5.55785 9.0244 5.55785 9.02416 5.55785 9.02391C5.55785 9.02366 5.55785 9.02342 5.55785 9.02317C5.55785 9.02292 5.55785 9.02268 5.55785 9.02243C5.55785 9.02218 5.55785 9.02194 5.55785 9.02169C5.55785 9.02144 5.55785 9.0212 5.55785 9.02095C5.55785 9.0207 5.55785 9.02046 5.55785 9.02021C5.55785 9.01996 5.55785 9.01972 5.55785 9.01947C5.55785 9.01923 5.55785 9.01898 5.55785 9.01873C5.55785 9.01849 5.55785 9.01824 5.55785 9.01799C5.55785 9.01775 5.55785 9.0175 5.55785 9.01725C5.55785 9.01701 5.55785 9.01676 5.55785 9.01651C5.55785 9.01627 5.55785 9.01602 5.55785 9.01577C5.55785 9.01553 5.55785 9.01528 5.55785 9.01503C5.55785 9.01479 5.55785 9.01454 5.55785 9.01429C5.55785 9.01405 5.55785 9.0138 5.55785 9.01356C5.55785 9.01331 5.55785 9.01306 5.55785 9.01282C5.55785 9.01257 5.55785 9.01232 5.55785 9.01208C5.55785 9.01183 5.55785 9.01158 5.55785 9.01134C5.55785 9.01109 5.55785 9.01084 5.55785 9.0106C5.55785 9.01035 5.55785 9.0101 5.55785 9.00986C5.55785 9.00961 5.55785 9.00936 5.55785 9.00912C5.55785 9.00887 5.55785 9.00862 5.55785 9.00838C5.55785 9.00813 5.55785 9.00788 5.55785 9.00764C5.55785 9.00739 5.55785 9.00715 5.55785 9.0069C5.55785 9.00665 5.55785 9.00641 5.55785 9.00616C5.55785 9.00591 5.55785 9.00567 5.55785 9.00542C5.55785 9.00517 5.55785 9.00493 5.55785 9.00468C5.55785 9.00443 5.55785 9.00419 5.55785 9.00394C5.55785 9.00369 5.55785 9.00345 5.55785 9.0032C5.55785 9.00295 5.55785 9.00271 5.55785 9.00246C5.55785 9.00221 5.55785 9.00197 5.55785 9.00172C5.55785 9.00147 5.55785 9.00123 5.55785 9.00098C5.55785 9.00074 5.55785 9.00049 5.55785 9.00024C5.55785 9 5.55785 8.99975 5.55785 8.9995C5.55785 8.99926 5.55785 8.99901 5.55785 8.99876C5.55785 8.99852 5.55785 8.99827 5.55785 8.99802C5.55785 8.99778 5.55785 8.99753 5.55785 8.99728C5.55785 8.99704 5.55785 8.99679 5.55785 8.99654C5.55785 8.9963 5.55785 8.99605 5.55785 8.9958C5.55785 8.99556 5.55785 8.99531 5.55785 8.99506C5.55785 8.99482 5.55785 8.99457 5.55785 8.99433C5.55785 8.99408 5.55785 8.99383 5.55785 8.99359C5.55785 8.99334 5.55785 8.99309 5.55785 8.99285C5.55785 8.9926 5.55785 8.99235 5.55785 8.99211C5.55785 8.99186 5.55785 8.99161 5.55785 8.99137C5.55785 8.99112 5.55785 8.99087 5.55785 8.99063C5.55785 8.99038 5.55785 8.99013 5.55785 8.98989C5.55785 8.98964 5.55785 8.98939 5.55785 8.98915C5.55785 8.9889 5.55785 8.98865 5.55785 8.98841C5.55785 8.98816 5.55785 8.98792 5.55785 8.98767C5.55785 8.98742 5.55785 8.98718 5.55785 8.98693C5.55785 8.98668 5.55785 8.98644 5.55785 8.98619C5.55785 8.98594 5.55785 8.9857 5.55785 8.98545C5.55785 8.9852 5.55785 8.98496 5.55785 8.98471C5.55785 8.98446 5.55785 8.98422 5.55785 8.98397C5.55785 8.98372 5.55785 8.98348 5.55785 8.98323C5.55785 8.98298 5.55785 8.98274 5.55785 8.98249C5.55785 8.98224 5.55785 8.982 5.55785 8.98175C5.55785 8.9815 5.55785 8.98126 5.55785 8.98101C5.55785 8.98077 5.55785 8.98052 5.55785 8.98027C5.55785 8.98003 5.55785 8.97978 5.55785 8.97953C5.55785 8.97929 5.55785 8.97904 5.55785 8.97879C5.55785 8.97855 5.55785 8.9783 5.55785 8.97805C5.55785 8.97781 5.55785 8.97756 5.55785 8.97731C5.55785 8.97707 5.55785 8.97682 5.55785 8.97657C5.55785 8.97633 5.55785 8.97608 5.55785 8.97583C5.55785 8.97559 5.55785 8.97534 5.55785 8.97509C5.55785 8.97485 5.55785 8.9746 5.55785 8.97435C5.55785 8.97411 5.55785 8.97386 5.55785 8.97362C5.55785 8.97337 5.55785 8.97312 5.55785 8.97288C5.55785 8.97263 5.55785 8.97238 5.55785 8.97214C5.55785 8.97189 5.55785 8.97164 5.55785 8.9714C5.55785 8.97115 5.55785 8.9709 5.55785 8.97066C5.55785 8.97041 5.55785 8.97016 5.55785 8.96992C5.55785 8.96967 5.55785 8.96942 5.55785 8.96918C5.55785 8.96893 5.55785 8.96868 5.55785 8.96844C5.55785 8.96819 5.55785 8.96794 5.55785 8.9677C5.55785 8.96745 5.55785 8.9672 5.55785 8.96696C5.55785 8.96671 5.55785 8.96647 5.55785 8.96622C5.55785 8.96597 5.55785 8.96573 5.55785 8.96548C5.55785 8.96523 5.55785 8.96499 5.55785 8.96474C5.55785 8.96449 5.55785 8.96425 5.55785 8.964C5.55785 8.96375 5.55785 8.96351 5.55785 8.96326C5.55785 8.96301 5.55785 8.96277 5.55785 8.96252C5.55785 8.96227 5.55785 8.96203 5.55785 8.96178C5.55785 8.96153 5.55785 8.96129 5.55785 8.96104C5.55785 8.96079 5.55785 8.96055 5.55785 8.9603C5.55785 8.96005 5.55785 8.95981 5.55785 8.95956C5.55785 8.95932 5.55785 8.95907 5.55785 8.95882C5.55785 8.95858 5.55785 8.95833 5.55785 8.95808C5.55785 8.95784 5.55785 8.95759 5.55785 8.95734C5.55785 8.9571 5.55785 8.95685 5.55785 8.9566C5.55785 8.95636 5.55785 8.95611 5.55785 8.95586C5.55785 8.95562 5.55785 8.95537 5.55785 8.95512C5.55785 8.95488 5.55785 8.95463 5.55785 8.95438C5.55785 8.95414 5.55785 8.95389 5.55785 8.95364C5.55785 8.9534 5.55785 8.95315 5.55785 8.9529C5.55785 8.95266 5.55785 8.95241 5.55785 8.95216C5.55785 8.95192 5.55785 8.95167 5.55785 8.95143C5.55785 8.95118 5.55785 8.95093 5.55785 8.95069C5.55785 8.95044 5.55785 8.95019 5.55785 8.94995C5.55785 8.9497 5.55785 8.94945 5.55785 8.94921C5.55785 8.94896 5.55785 8.94871 5.55785 8.94847C5.55785 8.94822 5.55785 8.94797 5.55785 8.94773C5.55785 8.94748 5.55785 8.94723 5.55785 8.94699C5.55785 8.94674 5.55785 8.94649 5.55785 8.94625C5.55785 8.946 5.55785 8.94575 5.55785 8.94551C5.55785 8.94526 5.55785 8.94501 5.55785 8.94477C5.55785 8.94452 5.55785 8.94427 5.55785 8.94403C5.55785 8.94378 5.55785 8.94354 5.55785 8.94329C5.55785 8.94304 5.55785 8.9428 5.55785 8.94255C5.55785 8.9423 5.55785 8.94206 5.55785 8.94181C5.55785 8.94156 5.55785 8.94132 5.55785 8.94107C5.55785 8.94082 5.55785 8.94058 5.55785 8.94033C5.55785 8.94008 5.55785 8.93984 5.55785 8.93959C5.55785 8.93934 5.55785 8.9391 5.55785 8.93885C5.55785 8.9386 5.55785 8.93836 5.55785 8.93811C5.55785 8.93786 5.55785 8.93762 5.55785 8.93737C5.55785 8.93712 5.55785 8.93688 5.55785 8.93663C5.55785 8.93638 5.55785 8.93614 5.55785 8.93589C5.55785 8.93564 5.55785 8.9354 5.55785 8.93515C5.55785 8.93491 5.55785 8.93466 5.55785 8.93441C5.55785 8.93417 5.55785 8.93392 5.55785 8.93367C5.55785 8.93343 5.55785 8.93318 5.55785 8.93293C5.55785 8.93269 5.55785 8.93244 5.55785 8.93219C5.55785 8.93195 5.55785 8.9317 5.55785 8.93145C5.55785 8.93121 5.55785 8.93096 5.55785 8.93071C5.55785 8.93047 5.55785 8.93022 5.55785 8.92997C5.55785 8.92973 5.55785 8.92948 5.55785 8.92923C5.55785 8.92899 5.55785 8.92874 5.55785 8.92849C5.55785 8.92825 5.55785 8.928 5.55785 8.92775C5.55785 8.92751 5.55785 8.92726 5.55785 8.92701C5.55785 8.92677 5.55785 8.92652 5.55785 8.92628C5.55785 8.92603 5.55785 8.92578 5.55785 8.92554C5.55785 8.92529 5.55785 8.92504 5.55785 8.9248C5.55785 8.92455 5.55785 8.9243 5.55785 8.92406C5.55785 8.92381 5.55785 8.92356 5.55785 8.92332C5.55785 8.92307 5.55785 8.92282 5.55785 8.92258C5.55785 8.92233 5.55785 8.92208 5.55785 8.92184C5.55785 8.92159 5.55785 8.92134 5.55785 8.9211C5.55785 8.92085 5.55785 8.9206 5.55785 8.92036C5.55785 8.92011 5.55785 8.91986 5.55785 8.91962C5.55785 8.91937 5.55785 8.91912 5.55785 8.91888C5.55785 8.91863 5.55785 8.91838 5.55785 8.91814C5.55785 8.91789 5.55785 8.91765 5.55785 8.9174C5.55785 8.91715 5.55785 8.91691 5.55785 8.91666C5.55785 8.91641 5.55785 8.91617 5.55785 8.91592C5.55785 8.91567 5.55785 8.91543 5.55785 8.91518C5.55785 8.91493 5.55785 8.91469 5.55785 8.91444C5.55785 8.91419 5.55785 8.91395 5.55785 8.9137C5.55785 8.91345 5.55785 8.91321 5.55785 8.91296C5.55785 8.91271 5.55785 8.91247 5.55785 8.91222C5.55785 8.91197 5.55785 8.91173 5.55785 8.91148C5.55785 8.91123 5.55785 8.91099 5.55785 8.91074C5.55785 8.91049 5.55785 8.91025 5.55785 8.91C5.55785 8.90975 5.55785 8.90951 5.55785 8.90926C5.55785 8.90902 5.55785 8.90877 5.55785 8.90852C5.55785 8.90828 5.55785 8.90803 5.55785 8.90778C5.55785 8.90754 5.55785 8.90729 5.55785 8.90704C5.55785 8.9068 5.55785 8.90655 5.55785 8.9063C5.55785 8.90606 5.55785 8.90581 5.55785 8.90556C5.55785 8.90532 5.55785 8.90507 5.55785 8.90482C5.55785 8.90458 5.55785 8.90433 5.55785 8.90408C5.55785 8.90384 5.55785 8.90359 5.55785 8.90334C5.55785 8.9031 5.55785 8.90285 5.55785 8.9026C5.55785 8.90236 5.55785 8.90211 5.55785 8.90186C5.55785 8.90162 5.55785 8.90137 5.55785 8.90112C5.55785 8.90088 5.55785 8.90063 5.55785 8.90038C5.55785 8.90014 5.55785 8.89989 5.55785 8.89965C5.55785 8.8994 5.55785 8.89915 5.55785 8.89891C5.55785 8.89866 5.55785 8.89841 5.55785 8.89817C5.55785 8.89792 5.55785 8.89767 5.55785 8.89743C5.55785 8.89718 5.55785 8.89693 5.55785 8.89669C5.55785 8.89644 5.55785 8.89619 5.55785 8.89595C5.55785 8.8957 5.55785 8.89545 5.55785 8.89521C5.55785 8.89496 5.55785 8.89471 5.55785 8.89447C5.55785 8.89422 5.55785 8.89397 5.55785 8.89373C5.55785 8.89348 5.55785 8.89323 5.55785 8.89299C5.55785 8.89274 5.55785 8.89249 5.55785 8.89225C5.55785 8.892 5.55785 8.89175 5.55785 8.89151C5.55785 8.89126 5.55785 8.89101 5.55785 8.89077C5.55785 8.89052 5.55785 8.89028 5.55785 8.89003C5.55785 8.88978 5.55785 8.88954 5.55785 8.88929C5.55785 8.88904 5.55785 8.8888 5.55785 8.88855C5.55785 8.8883 5.55785 8.88806 5.55785 8.88781C5.55785 8.88756 5.55785 8.88732 5.55785 8.88707C5.55785 8.88682 5.55785 8.88658 5.55785 8.88633C5.55785 8.88608 5.55785 8.88584 5.55785 8.88559C5.55785 8.88534 5.55785 8.8851 5.55785 8.88485C5.55785 8.8846 5.55785 8.88436 5.55785 8.88411C5.55785 8.88386 5.55785 8.88362 5.55785 8.88337C5.55785 8.88312 5.55785 8.88288 5.55785 8.88263C5.55785 8.88238 5.55785 8.88214 5.55785 8.88189C5.55785 8.88164 5.55785 8.8814 5.55785 8.88115C5.55785 8.8809 5.55785 8.88066 5.55785 8.88041C5.55785 8.88017 5.55785 8.87992 5.55785 8.87967C5.55785 8.87943 5.55785 8.87918 5.55785 8.87893C5.55785 8.87869 5.55785 8.87844 5.55785 8.87819C5.55785 8.87795 5.55785 8.8777 5.55785 8.87745C5.55785 8.87721 5.55785 8.87696 5.55785 8.87671C5.55785 8.87647 5.55785 8.87622 5.55785 8.87597C5.55785 8.87573 5.55785 8.87548 5.55785 8.87523C5.55785 8.87499 5.55785 8.87474 5.55785 8.87449C5.55785 8.87425 5.55785 8.874 5.55785 8.87375C5.55785 8.87351 5.55785 8.87326 5.55785 8.87301C5.55785 8.87277 5.55785 8.87252 5.55785 8.87227C5.55785 8.87203 5.55785 8.87178 5.55785 8.87153C5.55785 8.87129 5.55785 8.87104 5.55785 8.8708C5.55785 8.87055 5.55785 8.8703 5.55785 8.87006C5.55785 8.86981 5.55785 8.86956 5.55785 8.86932C5.55785 8.86907 5.55785 8.86882 5.55785 8.86858C5.55785 8.86833 5.55785 8.86808 5.55785 8.86784C5.55785 8.86759 5.55785 8.86734 5.55785 8.8671C5.55785 8.86685 5.55785 8.8666 5.55785 8.86636C5.55785 8.86611 5.55785 8.86586 5.55785 8.86562C5.55785 8.86537 5.55785 8.86512 5.55785 8.86488C5.55785 8.86463 5.55785 8.86438 5.55785 8.86414C5.55785 8.86389 5.55785 8.86364 5.55785 8.8634C5.55785 8.86315 5.55785 8.8629 5.55785 8.86266C5.55785 8.86241 5.55785 8.86216 5.55785 8.86192C5.55785 8.86167 5.55785 8.86142 5.55785 8.86118C5.55785 8.86093 5.55785 8.86069 5.55785 8.86044C5.55785 8.86019 5.55785 8.85995 5.55785 8.8597C5.55785 8.85945 5.55785 8.85921 5.55785 8.85896C5.55785 8.85871 5.55785 8.85847 5.55785 8.85822C5.55785 8.85797 5.55785 8.85773 5.55785 8.85748C5.55785 8.85723 5.55785 8.85699 5.55785 8.85674C5.55785 8.85649 5.55785 8.85625 5.55785 8.856C5.55785 8.85575 5.55785 8.85551 5.55785 8.85526C5.55785 8.85501 5.55785 8.85477 5.55785 8.85452C5.55785 8.85427 5.55785 8.85403 5.55785 8.85378C5.55785 8.85353 5.55785 8.85329 5.55785 8.85304C5.55785 8.85279 5.55785 8.85255 5.55785 8.8523C5.55785 8.85205 5.55785 8.85181 5.55785 8.85156C5.55785 8.85131 5.55785 8.85107 5.55785 8.85082C5.55785 8.85057 5.55785 8.85033 5.55785 8.85008C5.55785 8.84984 5.55785 8.84959 5.55785 8.84934C5.55785 8.8491 5.55785 8.84885 5.55785 8.8486C5.55785 8.84836 5.55785 8.84811 5.55785 8.84786C5.55785 8.84762 5.55785 8.84737 5.55785 8.84712C5.55785 8.84688 5.55785 8.84663 5.55785 8.84638C5.55785 8.84614 5.55785 8.84589 5.55785 8.84564C5.55785 8.8454 5.55785 8.84515 5.55785 8.8449C5.55785 8.84466 5.55785 8.84441 5.55785 8.84416C5.55785 8.84392 5.55785 8.84367 5.55785 8.84342C5.55785 8.84318 5.55785 8.84293 5.55785 8.84268C5.55785 8.84244 5.55785 8.84219 5.55785 8.84194C5.55785 8.8417 5.55785 8.84145 5.55785 8.8412C5.55785 8.84096 5.55785 8.84071 5.55785 8.84046C5.55785 8.84022 5.55785 8.83997 5.55785 8.83973C5.55785 8.83948 5.55785 8.83923 5.55785 8.83899C5.55785 8.83874 5.55785 8.83849 5.55785 8.83825C5.55785 8.838 5.55785 8.83775 5.55785 8.83751C5.55785 8.83726 5.55785 8.83701 5.55785 8.83677C5.55785 8.83652 5.55785 8.83627 5.55785 8.83603C5.55785 8.83578 5.55785 8.83553 5.55785 8.83529C5.55785 8.83504 5.55785 8.83479 5.55785 8.83455C5.55785 8.8343 5.55785 8.83405 5.55785 8.83381C5.55785 8.83356 5.55785 8.83331 5.55785 8.83307C5.55785 8.83282 5.55785 8.83257 5.55785 8.83233C5.55785 8.83208 5.55785 8.83183 5.55785 8.83159C5.55785 8.83134 5.55785 8.83109 5.55785 8.83085C5.55785 8.8306 5.55785 8.83035 5.55785 8.83011C5.55785 8.82986 5.55785 8.82961 5.55785 8.82937C5.55785 8.82912 5.55785 8.82888 5.55785 8.82863C5.55785 8.82838 5.55785 8.82814 5.55785 8.82789C5.55785 8.82764 5.55785 8.8274 5.55785 8.82715C5.55785 8.8269 5.55785 8.82666 5.55785 8.82641C5.55785 8.82616 5.55785 8.82592 5.55785 8.82567C5.55785 8.82542 5.55785 8.82518 5.55785 8.82493C5.55785 8.82468 5.55785 8.82444 5.55785 8.82419C5.55785 8.82394 5.55785 8.8237 5.55785 8.82345C5.55785 8.8232 5.55785 8.82296 5.55785 8.82271C5.55785 8.82246 5.55785 8.82222 5.55785 8.82197H3.55785ZM3.55785 9.20101C3.55795 9.45324 3.55804 9.71036 3.55659 9.96233L5.55656 9.97384C5.55805 9.7147 5.55795 9.45143 5.55785 9.20023L3.55785 9.20101ZM3.55659 9.96281C3.5549 10.2827 3.65849 10.6201 3.9192 10.8812C4.15692 11.1192 4.42893 11.1961 4.58433 11.2227L4.92209 9.25146C5.00361 9.26542 5.17676 9.31007 5.33436 9.46788C5.51495 9.64872 5.55717 9.85794 5.55656 9.97336L3.55659 9.96281ZM4.58443 11.2227C5.14462 11.3187 5.60863 11.3883 6.04027 11.4404L6.27966 9.45474C5.89002 9.40777 5.46016 9.3436 4.92199 9.25144L4.58443 11.2227ZM6.0401 11.4403C6.66085 11.5153 7.22982 11.5601 7.77642 11.5759L7.83427 9.57671C7.35747 9.56292 6.84986 9.52359 6.27983 9.45476L6.0401 11.4403ZM7.77655 11.5759C8.7894 11.6051 9.64733 11.5389 10.4475 11.349L9.98543 9.40306C9.40228 9.54153 8.72796 9.60246 7.83414 9.57671L7.77655 11.5759ZM10.4473 11.349C10.9663 11.2259 11.4192 11.0549 11.8411 10.8015L10.8113 9.08698C10.6005 9.21358 10.3482 9.31701 9.98565 9.40301L10.4473 11.349ZM11.8408 10.8017C12.0945 10.6494 12.5178 10.3681 12.8304 9.85882L11.1259 8.81256C11.0642 8.91298 10.9685 8.99265 10.8116 9.08682L11.8408 10.8017ZM12.8302 9.85905C13.1588 9.32411 13.2739 8.71912 13.1627 8.10102L11.1943 8.45513C11.2181 8.58755 11.1986 8.69418 11.126 8.81233L12.8302 9.85905ZM13.1626 8.10075C13.1507 8.03475 13.1674 7.98729 13.1815 7.96539L11.5007 6.88154C11.2008 7.34657 11.0963 7.9115 11.1943 8.4554L13.1626 8.10075ZM13.1815 7.96544C13.1869 7.95712 13.1836 7.96535 13.1652 7.97702C13.1461 7.98922 13.1225 7.99731 13.1008 7.99952L12.8977 6.00986C12.3032 6.07055 11.8082 6.40472 11.5007 6.88149L13.1815 7.96544ZM13.1006 7.99955C13.0705 8.00261 13.0411 7.99868 13.017 7.99069C12.9939 7.98306 12.9811 7.97366 12.9766 7.96989C12.9688 7.9633 12.9866 7.97531 12.9955 8.02065L14.9577 7.63353C14.7797 6.73113 13.9808 5.89958 12.898 6.00984L13.1006 7.99955ZM12.9955 8.02053C13.0918 8.50897 13.0595 8.99878 12.8932 9.48912L14.7871 10.1317C15.0637 9.31655 15.123 8.47194 14.9577 7.63365L12.9955 8.02053ZM15.8307 2.74358C15.8306 2.68016 15.8436 2.5564 15.9214 2.41954C16.0009 2.27964 16.1071 2.19821 16.1793 2.15798L17.1532 3.90485C17.3378 3.80191 17.5264 3.64314 17.6601 3.40792C17.7921 3.17574 17.831 2.93868 17.8307 2.74063L15.8307 2.74358ZM16.1793 2.15795C15.432 2.57449 14.6851 2.99136 13.9383 3.40806L14.9128 5.15456C15.6598 4.73777 16.4063 4.32116 17.1531 3.90489L16.1793 2.15795ZM13.9383 3.40803L13.0933 3.87951L14.0677 5.62606L14.9128 5.15458L13.9383 3.40803ZM13.0932 3.87954C13.0291 3.91532 12.9647 3.95144 12.9021 3.98645L13.879 5.73165C13.9431 5.69575 14.0052 5.66095 14.0678 5.62604L13.0932 3.87954ZM12.9021 3.98648C12.75 4.07164 12.5977 4.15691 12.4484 4.23868L13.409 5.9929C13.568 5.9058 13.7288 5.81577 13.8791 5.73162L12.9021 3.98648ZM12.4484 4.23867C12.6383 4.13467 12.8866 4.1144 13.11 4.21551L12.2853 6.03756C12.658 6.20627 13.0705 6.17823 13.409 5.99291L12.4484 4.23867ZM13.1084 4.21478C13.323 4.31148 13.4412 4.48505 13.4878 4.62966L11.5842 5.24313C11.6878 5.56458 11.9207 5.87334 12.2869 6.03829L13.1084 4.21478ZM13.4877 4.62939C13.5263 4.74896 13.5245 4.8383 13.5245 4.83892L11.5245 4.83442C11.5243 4.92323 11.5296 5.07397 11.5843 5.2434L13.4877 4.62939ZM13.5245 4.83748C13.5247 4.59111 13.5246 4.34485 13.5245 4.09929L11.5245 4.1001C11.5246 4.34586 11.5247 4.59091 11.5245 4.83586L13.5245 4.83748ZM13.5245 4.09785C13.5244 4.07192 13.5481 3.6778 13.2802 3.31992L11.679 4.51825C11.5007 4.28004 11.5243 4.01999 11.5245 4.10155L13.5245 4.09785ZM13.281 3.3209C12.9758 2.91208 12.5375 2.86012 12.4917 2.85236L12.1575 4.82425C12.1892 4.82961 12.1079 4.81939 12.0146 4.78018C11.9013 4.73263 11.7762 4.64853 11.6782 4.51726L13.281 3.3209ZM12.4923 2.85246C11.9853 2.76625 11.5252 2.69883 11.0874 2.6471L10.8527 4.63328C11.2513 4.68038 11.6774 4.7426 12.157 4.82415L12.4923 2.85246ZM11.0873 2.64709C10.5222 2.58032 9.99663 2.53707 9.48286 2.51573L9.39986 4.514C9.85714 4.533 10.3318 4.57174 10.8527 4.63328L11.0873 2.64709ZM9.48247 2.51571C9.08327 2.49928 8.71435 2.49728 8.35681 2.51057L8.43112 4.50919C8.72929 4.4981 9.04546 4.49942 9.40025 4.51402L9.48247 2.51571ZM8.35686 2.51057C7.56462 2.53998 6.88742 2.63384 6.25244 2.81995L6.81494 4.73921C7.24989 4.61174 7.75502 4.53429 8.43107 4.50919L8.35686 2.51057ZM6.2524 2.81996C5.7557 2.96555 5.3239 3.15672 4.93187 3.4325L6.08261 5.06829C6.25574 4.9465 6.47626 4.83849 6.81498 4.7392L6.2524 2.81996ZM4.93176 3.43258C4.49603 3.73919 4.15983 4.12592 3.96665 4.63841L5.8381 5.34385C5.86554 5.27106 5.91378 5.18709 6.08272 5.06821L4.93176 3.43258ZM3.96678 4.63806C3.81184 5.04862 3.76103 5.48044 3.85041 5.92499L5.81117 5.53077C5.80404 5.49531 5.79989 5.44512 5.83797 5.3442L3.96678 4.63806ZM3.85047 5.92531C3.859 5.96768 3.84741 6.00647 3.83617 6.02372L5.51165 7.11585C5.81734 6.64688 5.92013 6.0718 5.8111 5.53045L3.85047 5.92531ZM3.83618 6.0237C3.83187 6.03032 3.83227 6.02681 3.84287 6.02007C3.85383 6.01311 3.87364 6.00421 3.90102 6.0014L4.10541 7.99093C4.69988 7.92985 5.20321 7.58902 5.51164 7.11587L3.83618 6.0237ZM3.90108 6.00139C3.92689 5.99874 3.95075 6.00215 3.96912 6.00809C3.98657 6.01373 3.99598 6.02054 3.99924 6.02323C4.00476 6.0278 3.99655 6.02326 3.99307 6.00298L2.02203 6.3421C2.18567 7.29322 3.03709 8.10062 4.10535 7.99093L3.90108 6.00139ZM3.99306 6.00297C3.85755 5.21541 4.01228 4.54179 4.43935 3.94194L2.8101 2.78196C2.0606 3.83468 1.8001 5.05229 2.02203 6.34211L3.99306 6.00297ZM4.43936 3.94193C4.6992 3.57695 5.04631 3.27738 5.53652 3.02826L4.63044 1.24528C3.8839 1.62466 3.27664 2.12666 2.81009 2.78198L4.43936 3.94193ZM5.53645 3.02829C5.97585 2.80504 6.49965 2.63845 7.15889 2.5328L6.8424 0.558C6.02065 0.689695 5.29023 0.910041 4.6305 1.24525L5.53645 3.02829ZM7.15878 2.53282C7.47081 2.48284 7.80035 2.44851 8.13764 2.4313L8.03569 0.4339C7.6305 0.45458 7.22927 0.496041 6.84251 0.557983L7.15878 2.53282ZM8.13773 2.4313C8.38754 2.41852 8.58433 2.41299 8.76888 2.41299V0.412987C8.54217 0.412987 8.31023 0.419862 8.0356 0.433904L8.13773 2.4313ZM8.76888 2.41299C8.79247 2.41299 8.81652 2.41317 8.84516 2.4134L8.86099 0.413461C8.83363 0.413245 8.80169 0.412987 8.76888 0.412987V2.41299ZM8.85307 2.41343H8.85635V0.41343H8.85307V2.41343ZM8.87223 2.4133C9.19964 2.40811 9.54921 2.42637 9.87077 2.44714L9.99968 0.4513C9.66931 0.429962 9.25276 0.40701 8.84047 0.413556L8.87223 2.4133ZM9.87106 2.44716C10.2643 2.47245 10.6834 2.51274 11.1163 2.56717L11.3658 0.582799C10.8964 0.523767 10.4368 0.479402 9.99939 0.451281L9.87106 2.44716ZM11.1161 2.56715C11.4537 2.60967 11.7962 2.65894 12.1335 2.71374L12.4542 0.73962C12.0931 0.680951 11.727 0.628283 11.366 0.582822L11.1161 2.56715ZM12.1339 2.7138C12.4614 2.76688 12.849 2.69332 13.1522 2.40081L11.7635 0.961465C11.8579 0.870419 11.9789 0.798149 12.1174 0.759721C12.2517 0.72246 12.3696 0.725915 12.4538 0.739556L12.1339 2.7138ZM13.1518 2.40121C13.3596 2.20096 13.5216 1.89524 13.5216 1.5116H11.5216C11.5216 1.42324 11.5396 1.31966 11.5867 1.2136C11.6331 1.10906 11.6975 1.02512 11.764 0.961061L13.1518 2.40121ZM13.5216 1.51277C13.5217 1.43103 13.5223 1.34684 13.523 1.26346L11.523 1.24694C11.5223 1.33176 11.5217 1.42154 11.5216 1.51044L13.5216 1.51277ZM13.523 1.26162C13.5235 1.18576 13.5241 1.10291 13.5243 1.02148L11.5243 1.01644C11.5241 1.0928 11.5235 1.16995 11.523 1.24878L13.523 1.26162ZM13.5243 1.02081C13.5244 0.959011 13.5236 0.897334 13.523 0.847765L11.5232 0.870593C11.5238 0.925403 11.5244 0.971652 11.5243 1.01711L13.5243 1.02081ZM13.523 0.847944C13.5222 0.77529 13.5216 0.71471 13.5224 0.658835L11.5226 0.630704C11.5214 0.715996 11.5224 0.80168 11.5232 0.870414L13.523 0.847944ZM13.5224 0.658386C13.5199 0.842779 13.4309 1.06357 13.2222 1.20689L12.0899 -0.441682C11.7144 -0.183794 11.5281 0.22803 11.5226 0.631153L13.5224 0.658386ZM13.2225 1.20669C13.1222 1.27565 12.9921 1.32639 12.8434 1.33474C12.6944 1.34311 12.5572 1.30716 12.4464 1.24726L13.3978 -0.511974C12.9768 -0.739672 12.4775 -0.708145 12.0896 -0.441482L13.2225 1.20669ZM12.4462 1.24713C12.6715 1.36903 12.9006 1.49763 13.1299 1.62634L14.109 -0.117629C13.8819 -0.245104 13.6392 -0.381327 13.398 -0.511845L12.4462 1.24713ZM13.1302 1.62651C13.2234 1.67878 13.3193 1.7327 13.4149 1.78606L14.3895 0.0395589C14.2965 -0.0123503 14.2039 -0.0643607 14.1087 -0.1178L13.1302 1.62651ZM13.4149 1.78606C13.7002 1.94526 13.9866 2.10515 14.2724 2.26459L15.2467 0.517947C14.9608 0.358491 14.6757 0.199255 14.3895 0.039559L13.4149 1.78606ZM14.2721 2.26439C14.8961 2.61282 15.5416 2.97307 16.1767 3.32704L17.1504 1.58009C16.5159 1.22645 15.8709 0.866463 15.2471 0.518151L14.2721 2.26439ZM16.1769 3.32718C16.1091 3.28941 16.0044 3.21083 15.9245 3.07294C15.8455 2.93666 15.8309 2.81165 15.8307 2.74433L17.8307 2.73987C17.8303 2.53904 17.789 2.30144 17.6549 2.07012C17.5199 1.83719 17.3317 1.68111 17.1502 1.57995L16.1769 3.32718Z" fill="#fd5003" mask="url(#path-1-inside-1_3491_25186)"/>
</svg>
