<svg xmlns="http://www.w3.org/2000/svg" width="18.595" height="11.513" viewBox="0 0 18.595 11.513">
  <path id="tikmarknwg" d="M14.493,6.274a.773.773,0,0,0-1.17,0L8.644,11.43l1.17,1.289,4.679-5.165a.984.984,0,0,0,0-1.28Zm3.517-.009L9.814,15.3,6.927,12.125a.773.773,0,0,0-1.17,0,.977.977,0,0,0,0,1.289l3.468,3.821a.773.773,0,0,0,1.17,0L19.18,7.563a.977.977,0,0,0,0-1.289h-.008a.758.758,0,0,0-1.161-.009ZM1.07,13.423l3.468,3.821a.773.773,0,0,0,1.17,0l.581-.64L2.24,12.125a.773.773,0,0,0-1.17,0A.989.989,0,0,0,1.07,13.423Z" transform="translate(-0.828 -5.999)" fill="#04a74c"/>
</svg>
