<svg xmlns="http://www.w3.org/2000/svg" width="34.197" height="31.969" viewBox="0 0 34.197 31.969"><defs><style>.a{fill:#002180;}.b{fill:#4f8ffc;}.c{fill:#005dba;}.d{fill:#edf5ff;}.e{fill:#d5e8fe;}.f{fill:#001553;}.g{fill:#fff;}</style></defs><path class="a" d="M402.214,213.712l-2.788,2.788,1.591,6.311,5.148-5.148Z" transform="translate(-373.956 -200.17)"/><path class="a" d="M155.2,1.58l-5.1,5.1,6.255,1.646,2.793-2.793Z" transform="translate(-140.501 -1.58)"/><path class="b" d="M1.93,286.064,0,287.994l7.038,4.54,3.95-7.036Z" transform="translate(0 -267.415)"/><path class="c" d="M107.963,332.939l4.491,7.067,1.93-1.93.566-9.058Z" transform="translate(-101.077 -308.061)"/><path class="b" d="M291.241,152.037l-7.1,7.668,8.9,14.331,3.418-3.418Z" transform="translate(-265.828 -142.067)"/><path class="b" d="M6.508,27.2,3.093,30.611,17.428,39.5,25.1,32.4Z" transform="translate(-2.901 -25.607)"/><path class="d" d="M117.721,4.026,93.8,27.95l-.852-.852.823-2.1a18.579,18.579,0,0,1,3.868-5.94L109.255,7.439a18.536,18.536,0,0,1,5.857-3.81l.215-.092a2.134,2.134,0,0,1,2.36.454Z" transform="translate(-86.501 -3.251)"/><path class="e" d="M131.238,16.6a18.714,18.714,0,0,1-3.825,6.122L115.781,34.36a18.9,18.9,0,0,1-6,3.8l-.035.015-2.064.808-1-1L130.6,14.06l.185.185A2.132,2.132,0,0,1,131.238,16.6Z" transform="translate(-99.379 -13.285)"/><g transform="translate(21.222 7.999)"><ellipse class="f" cx="6.487" cy="6.483" rx="6.487" ry="6.483" transform="translate(0 0)"/><g transform="translate(11.606 6.483) rotate(135)"><rect class="g" width="1.419" height="7.239" transform="translate(2.909 0)"/><rect class="g" width="7.239" height="1.419" transform="translate(0 2.909)"/></g></g></svg>