<svg xmlns="http://www.w3.org/2000/svg" width="36.826" height="36.826" viewBox="0 0 36.826 36.826"><defs><style>.a{fill:#4f8ffc;}.b{fill:#bbdefb;}.c{fill:#ced0d4;}.d{fill:#002180;}.e{fill:#fff;}</style></defs><circle class="a" cx="5.604" cy="5.604" r="5.604" transform="translate(5.604)"/><path class="b" d="M10,45H23.968V55.159H10Z" transform="translate(-5.555 -18.333)"/><path class="c" d="M10,47H23.968v1.27H10Z" transform="translate(-5.555 -19.063)"/><path class="b" d="M25.857,37.873V27.714A5.714,5.714,0,0,0,20.143,22H18.822a8.236,8.236,0,0,1-8.787,0H8.714A5.714,5.714,0,0,0,3,27.714v7.619a2.54,2.54,0,0,0,2.54,2.54Z" transform="translate(-3 -9.936)"/><path class="a" d="M21.413,40.175A3.171,3.171,0,0,0,18.238,37H7.445v1.27H18.238a1.9,1.9,0,1,1,0,3.81H5.54c-1.05,0-2.54-.855-2.54-1.9v.635A2.54,2.54,0,0,0,5.027,43.3a3.1,3.1,0,0,0,.512.052h12.7A3.178,3.178,0,0,0,21.413,40.175Z" transform="translate(-3 -15.412)"/><path class="c" d="M18.75,37.873H13.67L6.14,23.384A5.664,5.664,0,0,1,9.861,22H10.5Z" transform="translate(-4.146 -9.936)"/><path class="a" d="M20,28h1.27v1.27H20Z" transform="translate(-9.206 -12.127)"/><path class="a" d="M20,53h1.27v5.079H20Z" transform="translate(-9.206 -21.254)"/><g transform="translate(20.318 13.334)"><path class="d" d="M43.254,46.223A13.255,13.255,0,0,1,35,34.06V26.54A22.906,22.906,0,0,0,43.254,24a22.9,22.9,0,0,0,8.254,2.54v7.52A13.255,13.255,0,0,1,43.254,46.223Z" transform="translate(-35 -24)"/><path class="d" d="M48,24V46.223A13.255,13.255,0,0,0,56.254,34.06V26.54A22.9,22.9,0,0,1,48,24Z" transform="translate(-39.746 -24)"/><path class="e" d="M42.551,42.654l-3.361-3.361-.9.9L42.1,44a.635.635,0,0,0,.9,0l1.456-1.456v-1.8Z" transform="translate(-36.202 -29.583)"/><path class="e" d="M53.265,33.293,48,38.558v1.8l6.163-6.163Z" transform="translate(-39.746 -27.393)"/></g></svg>