<svg xmlns="http://www.w3.org/2000/svg" width="33.306" height="33.469" viewBox="0 0 33.306 33.469"><defs><style>.a{fill:#b3c7eb;}.b{fill:#d9e7ff;}.c{fill:#002180;}.d{fill:#4f8ffc;}.e{fill:#005dba;}.f{fill:#f1f2f2;}</style></defs><path class="a" d="M11.3,23.781,8.679,16.224a1.809,1.809,0,0,0-2.061-1.343A1.741,1.741,0,0,0,5.3,17.029L8,25.361Z" transform="translate(-4.082 -8.106)"/><path class="a" d="M48.29,23.781l2.623-7.556a1.809,1.809,0,0,1,2.061-1.343,1.741,1.741,0,0,1,1.32,2.148l-2.7,8.332Z" transform="translate(-22.204 -8.106)"/><path class="b" d="M15.866,28.6l-5.119-3a1.734,1.734,0,0,0-2.2.393L6.679,20.224a1.809,1.809,0,0,0-2.061-1.343A1.741,1.741,0,0,0,3.3,21.029l2.519,9.4a2.286,2.286,0,0,0,.7,1.135l3.914,3.48a2.316,2.316,0,0,1,.776,1.731v1.853h6.948V32.595a4.632,4.632,0,0,0-2.29-4Z" transform="translate(-3.24 -9.79)"/><path class="b" d="M48.538,18.881a1.809,1.809,0,0,0-2.061,1.343l-1.87,5.767a1.734,1.734,0,0,0-2.2-.393l-5.119,3a4.632,4.632,0,0,0-2.287,4v6.031h6.948V36.773a2.316,2.316,0,0,1,.776-1.731l3.914-3.48a2.286,2.286,0,0,0,.7-1.135l2.519-9.4a1.741,1.741,0,0,0-1.32-2.148Z" transform="translate(-16.61 -9.79)"/><path class="c" d="M34,53v4.632h8.107V53H34Z" transform="translate(-16.189 -24.164)"/><path class="c" d="M24.107,53H16v4.632h8.107Z" transform="translate(-8.611 -24.164)"/><path class="d" d="M33.015,12.094l-.411.411-7.371,7.371-7.371-7.371-.411-.411a5.211,5.211,0,1,1,7.372-7.366l.41.412.411-.411a5.211,5.211,0,1,1,7.372,7.366Z" transform="translate(-8.58 -3.2)"/><path class="e" d="M39.361,4.729a5.153,5.153,0,0,0-4.266-1.493A5.208,5.208,0,0,1,38.2,12.095l-.411.411L31,19.3l.579.579,7.371-7.371.411-.411A5.211,5.211,0,0,0,39.361,4.729Z" transform="translate(-14.926 -3.2)"/><path class="f" d="M30.632,16.948V14.632h2.316V12.316H30.632V10H28.316v2.316H26v2.316h2.316v2.316Z" transform="translate(-12.821 -6.062)"/><g transform="translate(4.905 16.729)"><path class="a" d="M47.8,33.023l-3.87,2.142a.5.5,0,1,0,.5.869L47.8,34.181a1.737,1.737,0,0,0,.764-2.09A1.72,1.72,0,0,1,47.8,33.023Z" transform="translate(-25.167 -32.091)"/><path class="a" d="M12.576,33.023l3.87,2.142a.5.5,0,1,1-.5.869l-3.369-1.853a1.737,1.737,0,0,1-.764-2.09,1.72,1.72,0,0,0,.764.932Z" transform="translate(-11.71 -32.091)"/></g></svg>