<svg xmlns="http://www.w3.org/2000/svg" width="44.065" height="39.366" viewBox="0 0 44.065 39.366"><defs><style>.a{fill:#001553;}.b{fill:#f4fbff;}.c{fill:#002180;}.d{fill:#4f8ffc;}.e{fill:#daf1f4;}</style></defs><g transform="translate(0)"><ellipse class="a" cx="15.875" cy="15.874" rx="15.875" ry="15.874" transform="translate(8.093)"/><ellipse class="b" cx="12.186" cy="12.186" rx="12.186" ry="12.186" transform="translate(11.781 3.689)"/><g transform="translate(14.716 5.482)"><g transform="translate(9.814)"><path class="c" d="M204.6,80.566a.579.579,0,0,1-.579-.579v-.819a.579.579,0,0,1,1.158,0v.819A.579.579,0,0,1,204.6,80.566Z" transform="translate(-204.022 -78.589)"/></g><g transform="translate(16.174 2.874)"><path class="c" d="M289.441,118.667a.579.579,0,0,1-.41-.989l.579-.579a.579.579,0,1,1,.819.819l-.579.579A.577.577,0,0,1,289.441,118.667Z" transform="translate(-288.861 -116.93)"/></g><g transform="translate(18.809 9.814)"><path class="c" d="M325.4,210.651h-.819a.579.579,0,1,1,0-1.158h.819a.579.579,0,1,1,0,1.158Z" transform="translate(-324.004 -209.493)"/></g><g transform="translate(10.052 19.047)"><path class="c" d="M207.779,334.629a.579.579,0,0,1-.579-.579v-.819a.579.579,0,0,1,1.158,0v.819A.579.579,0,0,1,207.779,334.629Z" transform="translate(-207.2 -332.652)"/></g><g transform="translate(2.874 16.174)"><path class="c" d="M112.038,296.069a.579.579,0,0,1-.41-.989l.579-.579a.579.579,0,0,1,.819.819l-.579.579A.578.578,0,0,1,112.038,296.069Z" transform="translate(-111.458 -294.332)"/></g><g transform="translate(0 9.814)"><path class="c" d="M74.516,210.651H73.7a.579.579,0,1,1,0-1.158h.819a.579.579,0,1,1,0,1.158Z" transform="translate(-73.118 -209.493)"/></g><g transform="translate(2.874 2.874)"><path class="c" d="M112.617,118.667a.577.577,0,0,1-.41-.17l-.579-.579a.579.579,0,0,1,.819-.819l.579.579a.579.579,0,0,1-.41.989Z" transform="translate(-111.458 -116.93)"/></g></g><g transform="translate(22.821 9.108)"><path class="c" d="M179.465,146.191a.579.579,0,0,1-.4-.164l-2.037-1.984a.579.579,0,1,1,.808-.83l1.054,1.026V140.13a.579.579,0,0,1,1.158,0v5.482a.579.579,0,0,1-.579.579Z" transform="translate(-176.848 -139.551)"/></g><g transform="translate(28.989 19.482)"><ellipse class="d" cx="7.538" cy="7.538" rx="7.538" ry="7.538"/><g transform="translate(6.501 2.167)"><path class="b" d="M361.8,286.044a.9.9,0,0,1-.9-.9v-5.4a.9.9,0,0,1,1.809,0v5.4A.9.9,0,0,1,361.8,286.044Z" transform="translate(-360.9 -278.837)"/><g transform="translate(0 8.319)"><path class="b" d="M361.8,423.384a.9.9,0,0,1-.9-.9V421.9a.9.9,0,0,1,1.809,0v.576A.9.9,0,0,1,361.8,423.384Z" transform="translate(-360.9 -421)"/></g><g transform="translate(0.39)"><path class="e" d="M369.079,278.837a.9.9,0,0,0-.452.122.9.9,0,0,1,.452.782v5.4a.9.9,0,0,1-.452.782.9.9,0,0,0,1.356-.782v-5.4A.9.9,0,0,0,369.079,278.837Z" transform="translate(-368.627 -278.837)"/><path class="e" d="M369.079,421a.9.9,0,0,0-.452.122.9.9,0,0,1,.452.782v.576a.9.9,0,0,1-.452.782.9.9,0,0,0,1.356-.782V421.9A.9.9,0,0,0,369.079,421Z" transform="translate(-368.627 -412.681)"/></g></g></g><g transform="matrix(0.559, 0.829, -0.829, 0.559, 16.554, 11.647)"><g transform="translate(0 0)"><path class="d" d="M19.36,13.78,11.647,6.068V2.648a3.775,3.775,0,0,0-.356-1.592L11.115.724A1.247,1.247,0,0,0,8.86.7l-.194.37a3.758,3.758,0,0,0-.347,1.573v3.42l-7.71,7.71A2.065,2.065,0,0,0,0,15.249v.975a.416.416,0,0,0,.641.349l7.84-5.024c.077,1.259.182,2.309.31,3.588l.132,1.31L6.011,18.372a.417.417,0,0,0-.187.348v.832a.417.417,0,0,0,.506.407l3.654-.813,3.654.813a.414.414,0,0,0,.35-.082.42.42,0,0,0,.156-.325v-.832a.414.414,0,0,0-.187-.347l-2.913-1.922.132-1.314c.128-1.277.233-2.327.31-3.586l7.84,5.022a.416.416,0,0,0,.641-.349v-.975A2.062,2.062,0,0,0,19.36,13.78Z" transform="translate(0 0)"/></g></g></g></svg>