<?xml version="1.0" encoding="UTF-8"?>
<svg version="1.1" xmlns="http://www.w3.org/2000/svg" width="512" height="512">
<path d="M0 0 C0.69673828 -0.04576172 1.39347656 -0.09152344 2.11132812 -0.13867188 C11.24184438 -0.32803335 19.36903715 4.56304979 25.95785522 10.57095337 C27.57856671 12.15659672 29.18363763 13.75834255 30.77490234 15.37353516 C32.10906693 16.69192886 32.10906693 16.69192886 33.47018433 18.03695679 C35.87799932 20.42307741 38.27176914 22.82166367 40.65911436 25.22816133 C43.17764121 27.76203963 45.71095989 30.28106549 48.24185181 32.80258179 C52.48701187 37.03687218 56.71947094 41.28354848 60.94482422 45.53759766 C65.8075108 50.43292901 70.69143361 55.30627154 75.58694494 60.16875994 C79.81410836 64.36856283 84.02930184 68.5801111 88.23498118 72.8014282 C90.73616528 75.31189412 93.24105342 77.81830404 95.7568779 80.31410599 C98.5641828 83.10061732 101.34621025 85.91158513 104.12646484 88.72509766 C104.94630859 89.53279602 105.76615234 90.34049438 106.61083984 91.17266846 C113.47843855 98.19215118 119.76697549 106.87505487 119.79467773 117.08032227 C119.75930908 117.75506592 119.72394043 118.42980957 119.6875 119.125 C119.6656665 119.85195068 119.64383301 120.57890137 119.62133789 121.32788086 C118.9041612 135.58995367 108.86579594 143.77522821 99.34838867 153.34448242 C98.5051152 154.19593338 97.66184174 155.04738434 96.79301453 155.92463684 C94.02519328 158.71709885 91.25347516 161.50565848 88.48046875 164.29296875 C87.51888482 165.25992285 86.55730457 166.2268806 85.59572792 167.19384193 C81.59412886 171.21701148 77.59111305 175.2387625 73.58437634 179.25681591 C67.87441495 184.98302331 62.1731306 190.71756873 56.48355693 196.46403617 C52.46239011 200.52401864 48.43157518 204.57426268 44.39359266 208.61752015 C41.99047871 211.02426772 39.59163541 213.43492166 37.20308495 215.8561306 C34.53532738 218.55558816 31.85213701 221.23875867 29.16479492 223.91870117 C28.38888 224.71102142 27.61296509 225.50334167 26.8135376 226.31967163 C19.45714153 233.59382605 11.43211463 238.44981637 0.875 238.6875 C-8.33860701 238.56465191 -15.63555981 235.21481334 -22.5 229.1875 C-29.5759056 221.20442702 -32.46937044 213.51557822 -32.23828125 202.8125 C-30.76957631 186.33248615 -16.42113446 175.77811663 -5.375 164.8125 C-4.16317574 163.6057054 -2.95158566 162.39867561 -1.74023438 161.19140625 C1.19132471 158.27072593 4.12601021 155.35322253 7.0625 152.4375 C6.34936321 152.43690291 5.63622642 152.43630582 4.90147942 152.43569064 C-37.37758341 152.3997861 -79.65657418 152.34313083 -121.935571 152.25957905 C-127.01360629 152.24956175 -132.0916419 152.2397176 -137.16967773 152.22998047 C-138.18061073 152.2280391 -139.19154372 152.22609772 -140.23311105 152.22409752 C-156.59568827 152.19308795 -172.95825148 152.17609977 -189.32085256 152.16430578 C-206.11405993 152.15188883 -222.90719379 152.1243751 -239.70035475 152.08288693 C-250.06019129 152.05776716 -260.41990589 152.04438162 -270.77977332 152.04607043 C-277.88675439 152.04610021 -284.99361137 152.03144782 -292.10054407 152.00533572 C-296.1990987 151.99070782 -300.29739888 151.98247128 -304.39597511 151.99169731 C-308.15372128 152.00001275 -311.91095724 151.98975203 -315.66862794 151.96516338 C-317.66071392 151.95683414 -319.65285252 151.96798639 -321.64491969 151.97999835 C-332.79865071 151.87384085 -341.81156669 149.54457429 -349.9921875 141.73046875 C-357.62401344 132.73472211 -358.76678624 122.80222551 -357.9375 111.4375 C-357.0838247 108.05694582 -355.78985919 105.37812022 -353.9375 102.4375 C-353.525 101.74140625 -353.1125 101.0453125 -352.6875 100.328125 C-348.10355198 93.40011266 -341.21994981 89.05906206 -333.23969066 86.85802579 C-327.98400083 85.89800404 -322.5880872 86.15107126 -317.26393127 86.1590271 C-315.86370409 86.15402069 -314.46347979 86.14814389 -313.06325954 86.14147437 C-309.22532814 86.12570205 -305.38747001 86.12224521 -301.54951012 86.12082577 C-297.4071057 86.11712688 -293.26474124 86.10196896 -289.12236023 86.08821106 C-281.94863365 86.06594976 -274.77492131 86.05092968 -267.60116768 86.04084396 C-257.22916104 86.02625127 -246.85720401 86.00071277 -236.4852265 85.97251268 C-219.65691219 85.92705543 -202.82859073 85.8904362 -186.00024414 85.859375 C-169.65420273 85.82918509 -153.3081788 85.79483278 -136.9621582 85.75488281 C-135.95439276 85.75242126 -134.94662732 85.74995972 -133.90832353 85.74742357 C-128.85260172 85.73504889 -123.79688012 85.72259237 -118.7411586 85.71009517 C-76.80663005 85.60654335 -34.87207998 85.51733481 7.0625 85.4375 C6.64764847 85.03819275 6.23279694 84.6388855 5.80537415 84.22747803 C1.45216013 80.03033014 -2.87525064 75.80778997 -7.18920898 71.5703125 C-8.7977689 69.99673881 -10.41258308 68.42953011 -12.03393555 66.86914062 C-30.2091979 49.35998737 -30.2091979 49.35998737 -32.6015625 35.625 C-32.47469962 25.2729889 -30.34039327 16.65099734 -23.125 8.9375 C-16.29756416 2.71780939 -9.15047409 0.23380066 0 0 Z " fill="#000000" transform="translate(392.9375,-0.4375)"/>
<path d="M0 0 C7.24356881 5.72747301 12.18042019 12.18865328 14.6875 21.125 C15.71957211 30.47365316 14.89717896 39.74314726 8.9453125 47.35229492 C2.20501161 54.68793607 -4.80599027 61.73251791 -11.875 68.75 C-13.08682426 69.9567946 -14.29841434 71.16382439 -15.50976562 72.37109375 C-18.44132471 75.29177407 -21.37601021 78.20927747 -24.3125 81.125 C-23.63495497 81.12559709 -22.95740995 81.12619418 -22.25933325 81.12680936 C17.907006 81.1627116 58.07326812 81.21936333 98.23953774 81.30292095 C103.06350012 81.31293828 107.88746283 81.32278243 112.71142578 81.33251953 C113.67178063 81.3344609 114.63213549 81.33640228 115.621592 81.33840248 C131.16682902 81.36941455 146.71205129 81.38640092 162.25731342 81.39819422 C178.21091886 81.41060988 194.16444691 81.43812068 210.11800349 81.47961307 C219.96039004 81.50473655 229.80264822 81.51811812 239.64506729 81.51642957 C246.39649173 81.51639979 253.14778549 81.5310467 259.899159 81.55716428 C263.79304193 81.57179649 267.6866569 81.58002506 271.58056259 81.57080269 C275.15014054 81.56249171 278.71918103 81.57273562 282.28867944 81.59733662 C284.18208905 81.60567246 286.07555406 81.59450852 287.96894395 81.58250165 C297.90239756 81.68211421 307.33183409 84.05779158 314.6875 91.125 C320.77723031 98.36373603 324.46193478 107.15222998 324.0234375 116.71484375 C322.60253329 126.90900532 318.54356077 134.44367729 310.6875 141.125 C304.05037385 145.39875778 297.9537378 147.2420788 290.07470226 147.2636652 C288.95006044 147.26913964 287.82541861 147.27461409 286.66669673 147.28025442 C284.82088786 147.28172158 284.82088786 147.28172158 282.93778992 147.28321838 C281.62678104 147.28815636 280.31577216 147.29309434 278.96503574 147.29818195 C275.32783199 147.31174961 271.69063759 147.31917744 268.05341518 147.32560861 C264.13048324 147.33361858 260.20757069 147.34731431 256.28465271 147.36032104 C249.48849279 147.38207531 242.6923309 147.40022365 235.8961544 147.41592598 C226.0700124 147.43863415 216.24389188 147.46677568 206.4177681 147.49624526 C190.47570579 147.54390954 174.53363471 147.58717688 158.59155273 147.62768555 C143.10489214 147.66704639 127.61823934 147.70847403 112.1315918 147.75268555 C111.17706683 147.75540982 110.22254186 147.75813409 109.2390919 147.76094092 C104.45054217 147.77462049 99.66199256 147.78834075 94.87344301 147.80208123 C55.14481158 147.91602772 15.41616339 148.02284113 -24.3125 148.125 C-23.6902227 148.72396088 -23.6902227 148.72396088 -23.05537415 149.33502197 C-18.70216013 153.53216986 -14.37474936 157.75471003 -10.06079102 161.9921875 C-8.4522311 163.56576119 -6.83741692 165.13296989 -5.21606445 166.69335938 C12.9591979 184.20251263 12.9591979 184.20251263 15.3515625 197.9375 C15.22584009 208.19644895 13.0974179 216.81830026 6.0625 224.5625 C-1.08707017 230.91619965 -8.28843344 233.55058812 -17.75 233.8125 C-18.75051392 233.85987305 -18.75051392 233.85987305 -19.77124023 233.90820312 C-31.2671361 233.78697618 -40.3759229 225.95296223 -48.02490234 218.18896484 C-48.9143454 217.31003571 -49.80378845 216.43110657 -50.72018433 215.52554321 C-53.12799932 213.13942259 -55.52176914 210.74083633 -57.90911436 208.33433867 C-60.42764121 205.80046037 -62.96095989 203.28143451 -65.49185181 200.75991821 C-69.73701187 196.52562782 -73.96947094 192.27895152 -78.19482422 188.02490234 C-83.0575108 183.12957099 -87.94143361 178.25622846 -92.83694494 173.39374006 C-97.06410836 169.19393717 -101.27930184 164.9823889 -105.48498118 160.7610718 C-107.98616528 158.25060588 -110.49105342 155.74419596 -113.0068779 153.24839401 C-115.8141828 150.46188268 -118.59621025 147.65091487 -121.37646484 144.83740234 C-122.60623047 143.6258548 -122.60623047 143.6258548 -123.86083984 142.38983154 C-130.72843855 135.37034882 -137.01697549 126.68744513 -137.04467773 116.48217773 C-137.00930908 115.80743408 -136.97394043 115.13269043 -136.9375 114.4375 C-136.9156665 113.71054932 -136.89383301 112.98359863 -136.87133789 112.23461914 C-136.1541612 97.97254633 -126.11579594 89.78727179 -116.59838867 80.21801758 C-115.7551152 79.36656662 -114.91184174 78.51511566 -114.04301453 77.63786316 C-111.27519328 74.84540115 -108.50347516 72.05684152 -105.73046875 69.26953125 C-104.76888482 68.30257715 -103.80730457 67.3356194 -102.84572792 66.36865807 C-98.84412886 62.34548852 -94.84111305 58.3237375 -90.83437634 54.30568409 C-85.12441495 48.57947669 -79.4231306 42.84493127 -73.73355693 37.09846383 C-69.71239011 33.03848136 -65.68157518 28.98823732 -61.64359266 24.94497985 C-59.24047871 22.53823228 -56.84163541 20.12757834 -54.45308495 17.7063694 C-51.78532738 15.00691184 -49.10213701 12.32374133 -46.41479492 9.64379883 C-45.63888 8.85147858 -44.86296509 8.05915833 -44.0635376 7.24282837 C-31.54416865 -5.1365789 -15.77214779 -8.92763082 0 0 Z " fill="#000000" transform="translate(136.3125,278.875)"/>
</svg>
